<svg width="454" height="924" viewBox="0 0 454 924" fill="none" xmlns="http://www.w3.org/2000/svg">
<path d="M4.47677 236.318H9.042V343.432H4.47677C2.16674 343.432 0.292969 341.497 0.292969 339.117V240.633C0.292969 238.25 2.16912 236.318 4.47677 236.318Z" fill="#5E5C59"/>
<path d="M450.456 182.358H446.956V144.91H450.456C452.306 144.91 453.808 146.46 453.808 148.368V178.903C453.808 180.811 452.306 182.36 450.456 182.36V182.358Z" fill="#5E5C59"/>
<path d="M450.456 280.499H446.956V211.755H450.456C452.306 211.755 453.808 213.304 453.808 215.212V277.045C453.808 278.953 452.306 280.502 450.456 280.502V280.499Z" fill="#5E5C59"/>
<path d="M450.456 369.426H446.956V300.681H450.456C452.306 300.681 453.808 302.23 453.808 304.138V365.972C453.808 367.88 452.306 369.429 450.456 369.429V369.426Z" fill="#5E5C59"/>
<path d="M432.534 97.7783H449.023V90.4561H432.534V97.7783Z" fill="#96948F"/>
<path d="M4.95759 97.7783H21.4473V90.4561H4.95759V97.7783Z" fill="#96948F"/>
<path d="M432.534 814.863H449.023V807.541H432.534V814.863Z" fill="#96948F"/>
<path d="M4.95759 814.863H21.4473V807.541H4.95759V814.863Z" fill="#96948F"/>
<path d="M356.932 17.0073V0L349.832 0V17.0073H356.932Z" fill="#96948F"/>
<path d="M356.932 923.035V906.027H349.832V923.035H356.932Z" fill="#96948F"/>
<path d="M104.149 17.0074V0L97.0501 0V17.0074H104.149Z" fill="#96948F"/>
<path d="M104.149 923.037V906.029H97.0501V923.037H104.149Z" fill="#96948F"/>
<path d="M7.34668 846.129V76.9056C7.34668 36.2719 39.6275 3.21606 79.3057 3.21606H374.673C414.353 3.21606 446.634 36.2719 446.634 76.9056V846.129C446.634 886.76 414.353 919.818 374.673 919.818H79.3057C39.6275 919.818 7.34668 886.76 7.34668 846.129ZM79.3057 6.32888C41.3034 6.32888 10.3862 37.9905 10.3862 76.9081V846.131C10.3862 885.049 41.3034 916.711 79.3057 916.711H374.673C412.675 916.711 443.595 885.051 443.595 846.131V76.9056C443.595 37.9881 412.675 6.32642 374.673 6.32642H79.3057V6.32888Z" fill="#A39F99"/>
<path d="M374.954 6.25024H79.0152C41.2037 6.25024 10.582 37.8652 10.582 76.8638V846.195C10.582 885.165 41.2037 916.777 79.0152 916.777H374.954C412.766 916.777 443.419 885.162 443.419 846.195V76.8638C443.419 37.8652 412.766 6.25024 374.954 6.25024ZM431.435 846.195C431.435 878.334 406.146 904.417 374.954 904.417H79.0152C47.8238 904.417 22.5661 878.334 22.5661 846.195V76.8638C22.5661 44.6932 47.8238 18.6105 79.0152 18.6105H108.469C114.522 18.6105 119.406 23.6781 119.406 29.8914V40.7075C119.406 50.5353 127.137 58.4771 136.635 58.4771H317.337C326.866 58.4771 334.566 50.5353 334.566 40.7075V29.8914C334.566 23.6805 339.479 18.6105 345.501 18.6105H374.954C406.146 18.6105 431.435 44.6932 431.435 76.8638V846.195Z" fill="black"/>
<path d="M287.093 40.6177C290.024 37.594 290.024 32.6916 287.093 29.6679C284.161 26.6442 279.408 26.6442 276.476 29.6679C273.545 32.6916 273.545 37.594 276.476 40.6177C279.408 43.6414 284.161 43.6414 287.093 40.6177Z" fill="url(#paint0_linear_1565_4960)"/>
<path d="M281.783 41.3172C278.476 41.3172 275.797 38.5535 275.797 35.1432C275.797 31.7329 278.476 28.9692 281.783 28.9692C285.089 28.9692 287.769 31.7329 287.769 35.1432C287.769 38.5535 285.089 41.3172 281.783 41.3172Z" fill="url(#paint1_linear_1565_4960)"/>
<path opacity="0.48" d="M278.35 30.4075H279.821C280.31 30.4075 280.706 30.8156 280.706 31.3197V32.8367C280.706 33.3408 280.31 33.7489 279.821 33.7489H278.35C277.862 33.7489 277.466 33.3408 277.466 32.8367V31.3197C277.466 30.8156 277.862 30.4075 278.35 30.4075Z" fill="url(#paint2_linear_1565_4960)"/>
<g opacity="0.57">
<path d="M307.327 42.2975C311.157 40.6611 312.976 36.1318 311.389 32.1812C309.803 28.2305 305.411 26.3544 301.581 27.9909C297.751 29.6273 295.932 34.1565 297.518 38.1072C299.105 42.0578 303.496 43.9339 307.327 42.2975Z" fill="#2E2E2D"/>
</g>
<path d="M152.402 42.2972C156.232 40.6608 158.051 36.1316 156.465 32.1809C154.878 28.2303 150.487 26.3542 146.656 27.9906C142.826 29.627 141.007 34.1563 142.594 38.1069C144.18 42.0576 148.571 43.9337 152.402 42.2972Z" fill="#2E2E2D"/>
<g opacity="0.57">
<path d="M177.509 40.6168C180.44 37.593 180.44 32.6906 177.509 29.6669C174.577 26.6432 169.824 26.6432 166.892 29.6669C163.961 32.6906 163.961 37.593 166.892 40.6168C169.824 43.6405 174.577 43.6405 177.509 40.6168Z" fill="#2E2E2D"/>
</g>
<path opacity="0.57" d="M263.589 38.0348H191.28C189.73 38.0348 188.474 36.739 188.474 35.1408C188.474 33.5426 189.73 32.2468 191.28 32.2468H263.589C265.139 32.2468 266.395 33.5426 266.395 35.1408C266.395 36.739 265.139 38.0348 263.589 38.0348Z" fill="#737270"/>
<defs>
<linearGradient id="paint0_linear_1565_4960" x1="278.031" y1="28.4359" x2="285.891" y2="41.6381" gradientUnits="userSpaceOnUse">
<stop stop-color="#183E8C"/>
<stop offset="0.05" stop-color="#163A84"/>
<stop offset="0.22" stop-color="#122F6C"/>
<stop offset="0.37" stop-color="#0F295D"/>
<stop offset="0.51" stop-color="#0F2759"/>
<stop offset="0.57" stop-color="#112B61"/>
<stop offset="0.67" stop-color="#183779"/>
<stop offset="0.8" stop-color="#234BA1"/>
<stop offset="0.95" stop-color="#3266D6"/>
<stop offset="1" stop-color="#3871EB"/>
</linearGradient>
<linearGradient id="paint1_linear_1565_4960" x1="281.783" y1="28.9668" x2="281.783" y2="41.3172" gradientUnits="userSpaceOnUse">
<stop stop-color="#0E2452"/>
<stop offset="0.91" stop-color="#0F275A"/>
<stop offset="1" stop-color="#10285C"/>
</linearGradient>
<linearGradient id="paint2_linear_1565_4960" x1="279.087" y1="25.9669" x2="279.087" y2="34.5776" gradientUnits="userSpaceOnUse">
<stop offset="0.32" stop-color="white"/>
<stop offset="0.69" stop-color="#F5F0ED"/>
<stop offset="1" stop-color="#F0E9E4"/>
</linearGradient>
</defs>
</svg>
