<svg width="1060" height="247" viewBox="0 0 1060 247" fill="none" xmlns="http://www.w3.org/2000/svg">
<path d="M452.706 7.17456L345.949 108.017V7.69171H291.556V239.306H345.949V175.245L384.746 139.304L454.934 239.306H526.301L427.671 99.6779L521.517 7.17456H452.706Z" fill="black"/>
<path d="M731.102 7.17456L624.281 108.017V7.69171H569.887V239.306H624.281V175.245L663.077 139.304L733.265 239.306H804.632L706.002 99.6779L799.848 7.17456H731.102Z" fill="black"/>
<path d="M243.511 68.3923C239.808 53.4826 232.035 39.8581 221.036 28.9979C210.038 18.1376 196.233 10.4564 181.122 6.78807C144.419 -2.26269 106.022 -2.26269 69.3195 6.78807C54.2078 10.4564 40.4035 18.1376 29.4049 28.9979C18.4062 39.8581 10.6336 53.4826 6.93045 68.3923C-2.31015 104.565 -2.31015 142.435 6.93045 178.608C10.6389 193.525 18.4214 207.156 29.4323 218.017C40.4432 228.878 54.2613 236.554 69.385 240.212C106.088 249.263 144.485 249.263 181.187 240.212C196.299 236.544 210.103 228.862 221.102 218.002C232.1 207.142 239.873 193.517 243.576 178.608C252.795 142.429 252.773 104.56 243.511 68.3923ZM190.624 165.679C189.258 171.086 186.426 176.024 182.431 179.964C178.437 183.904 173.431 186.698 167.949 188.046C139.986 194.982 110.717 194.982 82.7541 188.046C77.2728 186.698 72.2667 183.904 68.2722 179.964C64.2777 176.024 61.4455 171.086 60.0791 165.679C53.0024 137.993 53.0024 109.007 60.0791 81.3208C61.4239 75.946 64.2168 71.0298 68.1623 67.0925C72.1077 63.1552 77.059 60.3433 82.492 58.9545C110.455 52.0176 139.724 52.0176 167.687 58.9545C173.168 60.3023 178.175 63.096 182.169 67.0361C186.163 70.9762 188.996 75.9142 190.362 81.3208C197.525 108.986 197.615 137.972 190.624 165.679Z" fill="black"/>
<path d="M1053.07 68.3923C1049.37 53.4826 1041.59 39.8581 1030.59 28.9979C1019.6 18.1376 1005.79 10.4564 990.68 6.78807C953.978 -2.26269 915.581 -2.26269 878.878 6.78807C863.766 10.4564 849.962 18.1376 838.963 28.9979C827.965 39.8581 820.192 53.4826 816.489 68.3923C807.248 104.565 807.248 142.435 816.489 178.608C820.192 193.517 827.965 207.142 838.963 218.002C849.962 228.862 863.766 236.544 878.878 240.212C915.581 249.263 953.978 249.263 990.68 240.212C1005.79 236.544 1019.6 228.862 1030.59 218.002C1041.59 207.142 1049.37 193.517 1053.07 178.608C1062.31 142.435 1062.31 104.565 1053.07 68.3923ZM999.986 165.679C998.62 171.086 995.788 176.024 991.793 179.964C987.799 183.904 982.792 186.698 977.311 188.046C949.348 194.982 920.079 194.982 892.116 188.046C886.635 186.698 881.629 183.904 877.634 179.964C873.64 176.024 870.808 171.086 869.441 165.679C862.364 137.993 862.364 109.007 869.441 81.3208C870.808 75.9142 873.64 70.9762 877.634 67.0361C881.629 63.096 886.635 60.3023 892.116 58.9545C920.079 52.0176 949.348 52.0176 977.311 58.9545C982.792 60.3023 987.799 63.096 991.793 67.0361C995.788 70.9762 998.62 75.9142 999.986 81.3208C1007.06 109.007 1007.06 137.993 999.986 165.679Z" fill="black"/>
</svg>
