<svg width="176" height="42" viewBox="0 0 176 42" fill="none" xmlns="http://www.w3.org/2000/svg">
<path d="M75.1661 1.20264L57.4406 18.1074V1.28933H48.4092V40.1161H57.4406V29.3772L63.8823 23.3522L75.5361 40.1161H87.3857L71.0095 16.7095L86.5914 1.20264H75.1661Z" fill="white"/>
<path d="M121.39 1.20264L103.653 18.1074V1.28933H94.6221V40.1161H103.653V29.3772L110.095 23.3522L121.749 40.1161H133.599L117.222 16.7095L132.804 1.20264H121.39Z" fill="white"/>
<path d="M40.432 11.465C39.8171 8.96557 38.5265 6.68164 36.7004 4.86107C34.8742 3.0405 32.5821 1.75287 30.073 1.13792C23.979 -0.379307 17.6037 -0.379307 11.5096 1.13792C9.00054 1.75287 6.7085 3.0405 4.88231 4.86107C3.05613 6.68164 1.76557 8.96557 1.15072 11.465C-0.383572 17.5289 -0.383572 23.8771 1.15072 29.941C1.76646 32.4417 3.05865 34.7266 4.88687 36.5473C6.7151 38.368 9.00942 39.6548 11.5205 40.268C17.6145 41.7853 23.9899 41.7853 30.0839 40.268C32.593 39.6531 34.8851 38.3655 36.7112 36.5449C38.5374 34.7243 39.828 32.4404 40.4428 29.941C41.9736 23.8762 41.9698 17.528 40.432 11.465ZM31.6508 27.7737C31.4239 28.6801 30.9537 29.5078 30.2904 30.1683C29.6272 30.8288 28.796 31.2972 27.8859 31.5231C23.243 32.686 18.3832 32.686 13.7403 31.5231C12.8302 31.2972 11.999 30.8288 11.3358 30.1683C10.6725 29.5078 10.2023 28.6801 9.9754 27.7737C8.80039 23.1325 8.80039 18.2735 9.9754 13.6323C10.1987 12.7312 10.6624 11.9071 11.3175 11.2471C11.9726 10.5871 12.7947 10.1157 13.6968 9.88286C18.3397 8.72 23.1995 8.72 27.8424 9.88286C28.7525 10.1088 29.5837 10.5771 30.2469 11.2376C30.9102 11.8981 31.3804 12.7259 31.6073 13.6323C32.7966 18.2699 32.8115 23.1289 31.6508 27.7737Z" fill="white"/>
<path d="M174.849 11.465C174.234 8.96557 172.944 6.68164 171.117 4.86107C169.291 3.0405 166.999 1.75287 164.49 1.13792C158.396 -0.379307 152.021 -0.379307 145.927 1.13792C143.418 1.75287 141.125 3.0405 139.299 4.86107C137.473 6.68164 136.183 8.96557 135.568 11.465C134.033 17.5289 134.033 23.8771 135.568 29.941C136.183 32.4404 137.473 34.7243 139.299 36.5449C141.125 38.3655 143.418 39.6531 145.927 40.268C152.021 41.7853 158.396 41.7853 164.49 40.268C166.999 39.6531 169.291 38.3655 171.117 36.5449C172.944 34.7243 174.234 32.4404 174.849 29.941C176.383 23.8771 176.383 17.5289 174.849 11.465ZM166.035 27.7737C165.808 28.6801 165.338 29.5078 164.675 30.1683C164.012 30.8288 163.18 31.2972 162.27 31.5231C157.627 32.686 152.768 32.686 148.125 31.5231C147.215 31.2972 146.383 30.8288 145.72 30.1683C145.057 29.5078 144.587 28.6801 144.36 27.7737C143.185 23.1325 143.185 18.2735 144.36 13.6323C144.587 12.7259 145.057 11.8981 145.72 11.2376C146.383 10.5771 147.215 10.1088 148.125 9.88286C152.768 8.72 157.627 8.72 162.27 9.88286C163.18 10.1088 164.012 10.5771 164.675 11.2376C165.338 11.8981 165.808 12.7259 166.035 13.6323C167.21 18.2735 167.21 23.1325 166.035 27.7737Z" fill="white"/>
</svg>
