<svg width="1920" height="170" viewBox="0 0 1920 170" fill="none" xmlns="http://www.w3.org/2000/svg">
<g clip-path="url(#clip0_1563_4920)">
<path d="M2519.46 -0.975381L-149.068 -6.82129L-1.52588e-05 170.024H2225.33L2519.46 -0.975381Z" fill="#1A1A1A"/>
<path d="M2238.7 10.1748H1.6709V15.1702H2238.7V10.1748Z" fill="#FFA800"/>
<path d="M2225.33 131.576H0V140.567H2225.33V131.576Z" fill="#FFA800"/>
<path d="M2231.15 46.5478H2117.42V39.5542H2231.15V46.5478ZM2003.7 46.5478H1889.98V39.5542H2003.7V46.5478ZM1776.26 46.5478H1662.53V39.5542H1776.26V46.5478ZM1548.81 46.5478H1435.09V39.5542H1548.81V46.5478ZM1321.37 46.5478H1207.64V39.5542H1321.37V46.5478ZM1093.92 46.5478H980.198V39.5542H1093.92V46.5478ZM866.475 46.5478H752.753V39.5542H866.475V46.5478ZM639.03 46.5478H525.307V39.5542H639.03V46.5478ZM411.585 46.5478H297.862V39.5542H411.585V46.5478ZM184.14 46.5478H70.417V39.5542H184.14V46.5478Z" fill="white"/>
</g>
<defs>
<clipPath id="clip0_1563_4920">
<rect width="1920" height="170" fill="white"/>
</clipPath>
</defs>
</svg>
