<svg width="208" height="492" viewBox="0 0 208 492" fill="none" xmlns="http://www.w3.org/2000/svg">
<g clip-path="url(#clip0_1572_5123)">
<path style="mix-blend-mode:multiply" opacity="0.18" d="M25.0703 489.232C25.0703 490.514 60.4095 491.554 104.002 491.554C147.595 491.554 182.934 490.516 182.934 489.232C182.934 487.949 147.595 486.911 104.002 486.911C60.4095 486.911 25.0703 487.949 25.0703 489.232Z" fill="url(#paint0_radial_1572_5123)"/>
<path d="M108.934 147.363H90.3438V482.524H108.934V147.363Z" fill="url(#paint1_linear_1572_5123)"/>
<path d="M117.594 488.43V481.018C117.594 477.832 82.2178 477.832 82.2178 481.018V488.43C84.0971 488.308 92.3403 488.207 100.4 488.182C108.916 488.158 117.223 488.217 117.594 488.43Z" fill="url(#paint2_linear_1572_5123)"/>
<path d="M87.4143 488.428C90.6736 488.414 95.0737 488.395 99.938 488.375C104.8 488.368 109.198 488.362 112.458 488.358C114.056 488.362 115.35 488.37 116.237 488.387C117.153 488.397 117.534 488.437 117.596 488.432C117.786 488.152 109.7 487.955 99.9298 487.999C90.127 488.019 82.1622 488.275 82.222 488.432C82.2488 488.474 84.2086 488.439 87.4163 488.428H87.4143Z" fill="url(#paint3_radial_1572_5123)"/>
<path opacity="0.8" d="M82.2197 488.317C82.2197 488.5 90.1391 488.649 99.9068 488.649C109.675 488.649 117.594 488.5 117.594 488.317C117.594 488.133 109.675 487.984 99.9068 487.984C90.1391 487.984 82.2197 488.133 82.2197 488.317Z" fill="#231F20"/>
<path d="M61.0651 207.707L0.352539 146.975V61.0828L61.0651 0.352783H146.932L207.649 61.0828V146.975L146.932 207.707H61.0651Z" fill="#ED1C24"/>
<path d="M147.079 208.06H60.9209L0 147.121V60.9363L60.9189 0H147.077L208 60.9363V147.121L147.077 208.06H147.079ZM61.2118 207.356H146.788L207.299 146.83V61.2294L146.786 0.703643H61.2097L0.703441 61.2294V146.83L61.2097 207.356H61.2118Z" fill="white"/>
<path d="M141.606 197.039H65.1021L11.0176 142.553V65.5071L65.1021 11.019H141.606L195.691 65.505V142.551L141.606 197.039ZM66.5688 193.517H140.139L192.169 141.1V66.9577L140.139 14.5414H66.5688L14.5389 66.9577V141.1L66.5688 193.517Z" fill="white"/>
<path opacity="0.35" d="M207.029 61.0334L206.707 61.2088L206.393 61.3862L20.0144 165.148L19.6967 165.325L19.379 165.501L0.709961 146.828V61.2521L61.2018 0.74292H146.753L207.029 61.0334Z" fill="url(#paint4_linear_1572_5123)"/>
<path d="M106.884 19.9929C106.884 21.5859 105.593 22.8756 104 22.8756C102.408 22.8756 101.116 21.5838 101.116 19.9929C101.116 18.4019 102.408 17.1082 104 17.1082C105.593 17.1082 106.884 18.3999 106.884 19.9929Z" fill="url(#paint5_radial_1572_5123)"/>
<path d="M104.311 18.5918V19.7659H105.436V20.2653H104.311V21.4538H103.785V20.2653H102.661V19.7659H103.785V18.5918H104.311Z" fill="#414042"/>
<path d="M106.884 187.21C106.884 188.803 105.593 190.095 104 190.095C102.408 190.095 101.116 188.803 101.116 187.21C101.116 185.617 102.408 184.326 104 184.326C105.593 184.326 106.884 185.617 106.884 187.21Z" fill="url(#paint6_radial_1572_5123)"/>
<path d="M104.311 185.811V186.985H105.436V187.485H104.311V188.673H103.785V187.485H102.661V186.985H103.785V185.811H104.311Z" fill="#414042"/>
<path d="M56.7806 91V87.292L65.3846 78.436C67.3046 76.42 68.2646 74.74 68.2646 73.396C68.2646 72.412 67.9526 71.62 67.3286 71.02C66.7286 70.42 65.9486 70.12 64.9886 70.12C63.0926 70.12 61.6886 71.104 60.7766 73.072L56.6006 70.624C57.3926 68.896 58.5326 67.576 60.0206 66.664C61.5086 65.752 63.1406 65.296 64.9166 65.296C67.1966 65.296 69.1526 66.016 70.7846 67.456C72.4166 68.872 73.2326 70.792 73.2326 73.216C73.2326 75.832 71.8526 78.52 69.0926 81.28L64.1606 86.212H73.6286V91H56.7806ZM85.922 91.504C82.778 91.504 80.306 90.316 78.506 87.94C76.73 85.54 75.842 82.36 75.842 78.4C75.842 74.44 76.73 71.272 78.506 68.896C80.306 66.496 82.778 65.296 85.922 65.296C89.09 65.296 91.562 66.496 93.338 68.896C95.114 71.272 96.002 74.44 96.002 78.4C96.002 82.36 95.114 85.54 93.338 87.94C91.562 90.316 89.09 91.504 85.922 91.504ZM82.106 84.556C82.97 85.948 84.242 86.644 85.922 86.644C87.602 86.644 88.874 85.936 89.738 84.52C90.626 83.104 91.07 81.064 91.07 78.4C91.07 75.712 90.626 73.66 89.738 72.244C88.874 70.828 87.602 70.12 85.922 70.12C84.242 70.12 82.97 70.828 82.106 72.244C81.242 73.66 80.81 75.712 80.81 78.4C80.81 81.088 81.242 83.14 82.106 84.556ZM97.597 91V87.292L106.201 78.436C108.121 76.42 109.081 74.74 109.081 73.396C109.081 72.412 108.769 71.62 108.145 71.02C107.545 70.42 106.765 70.12 105.805 70.12C103.909 70.12 102.505 71.104 101.593 73.072L97.417 70.624C98.209 68.896 99.349 67.576 100.837 66.664C102.325 65.752 103.957 65.296 105.733 65.296C108.013 65.296 109.969 66.016 111.601 67.456C113.233 68.872 114.049 70.792 114.049 73.216C114.049 75.832 112.669 78.52 109.909 81.28L104.977 86.212H114.445V91H97.597ZM128.106 76.024C129.81 76.528 131.19 77.416 132.246 78.688C133.326 79.936 133.866 81.448 133.866 83.224C133.866 85.816 132.99 87.844 131.238 89.308C129.51 90.772 127.386 91.504 124.866 91.504C122.898 91.504 121.134 91.06 119.574 90.172C118.038 89.26 116.922 87.928 116.226 86.176L120.474 83.728C121.098 85.672 122.562 86.644 124.866 86.644C126.138 86.644 127.122 86.344 127.818 85.744C128.538 85.12 128.898 84.28 128.898 83.224C128.898 82.192 128.538 81.364 127.818 80.74C127.122 80.116 126.138 79.804 124.866 79.804H123.786L121.878 76.924L126.846 70.444H116.982V65.8H132.822V69.904L128.106 76.024ZM137.356 82.36V77.896H150.856V82.36H137.356ZM34.1575 128V124.292L42.7615 115.436C44.6815 113.42 45.6415 111.74 45.6415 110.396C45.6415 109.412 45.3295 108.62 44.7055 108.02C44.1055 107.42 43.3255 107.12 42.3655 107.12C40.4695 107.12 39.0655 108.104 38.1535 110.072L33.9775 107.624C34.7695 105.896 35.9095 104.576 37.3975 103.664C38.8855 102.752 40.5175 102.296 42.2935 102.296C44.5735 102.296 46.5295 103.016 48.1615 104.456C49.7935 105.872 50.6095 107.792 50.6095 110.216C50.6095 112.832 49.2295 115.52 46.4695 118.28L41.5375 123.212H51.0055V128H34.1575ZM63.299 128.504C60.155 128.504 57.683 127.316 55.883 124.94C54.107 122.54 53.219 119.36 53.219 115.4C53.219 111.44 54.107 108.272 55.883 105.896C57.683 103.496 60.155 102.296 63.299 102.296C66.467 102.296 68.939 103.496 70.715 105.896C72.491 108.272 73.379 111.44 73.379 115.4C73.379 119.36 72.491 122.54 70.715 124.94C68.939 127.316 66.467 128.504 63.299 128.504ZM59.483 121.556C60.347 122.948 61.619 123.644 63.299 123.644C64.979 123.644 66.251 122.936 67.115 121.52C68.003 120.104 68.447 118.064 68.447 115.4C68.447 112.712 68.003 110.66 67.115 109.244C66.251 107.828 64.979 107.12 63.299 107.12C61.619 107.12 60.347 107.828 59.483 109.244C58.619 110.66 58.187 112.712 58.187 115.4C58.187 118.088 58.619 120.14 59.483 121.556ZM74.974 128V124.292L83.578 115.436C85.498 113.42 86.458 111.74 86.458 110.396C86.458 109.412 86.146 108.62 85.522 108.02C84.922 107.42 84.142 107.12 83.182 107.12C81.286 107.12 79.882 108.104 78.97 110.072L74.794 107.624C75.586 105.896 76.726 104.576 78.214 103.664C79.702 102.752 81.334 102.296 83.11 102.296C85.39 102.296 87.346 103.016 88.978 104.456C90.61 105.872 91.426 107.792 91.426 110.216C91.426 112.832 90.046 115.52 87.286 118.28L82.354 123.212H91.822V128H74.974ZM113.046 119.108V123.716H110.346V128H105.342V123.716H93.4259V119.108L101.814 102.8H107.142L98.7899 119.108H105.342V113.132H110.346V119.108H113.046ZM135.153 109.496C137.577 109.496 139.641 110.42 141.345 112.268C143.073 114.092 143.937 116.336 143.937 119C143.937 121.664 143.073 123.92 141.345 125.768C139.641 127.592 137.577 128.504 135.153 128.504C132.633 128.504 130.689 127.628 129.321 125.876V135.2H124.677V110H129.321V112.124C130.689 110.372 132.633 109.496 135.153 109.496ZM130.725 122.672C131.661 123.608 132.849 124.076 134.289 124.076C135.729 124.076 136.917 123.608 137.853 122.672C138.813 121.712 139.293 120.488 139.293 119C139.293 117.512 138.813 116.3 137.853 115.364C136.917 114.404 135.729 113.924 134.289 113.924C132.849 113.924 131.661 114.404 130.725 115.364C129.789 116.3 129.321 117.512 129.321 119C129.321 120.488 129.789 121.712 130.725 122.672ZM157.688 109.496C160.112 109.496 162.176 110.42 163.88 112.268C165.608 114.092 166.472 116.336 166.472 119C166.472 121.664 165.608 123.92 163.88 125.768C162.176 127.592 160.112 128.504 157.688 128.504C155.168 128.504 153.224 127.628 151.856 125.876V135.2H147.212V110H151.856V112.124C153.224 110.372 155.168 109.496 157.688 109.496ZM153.26 122.672C154.196 123.608 155.384 124.076 156.824 124.076C158.264 124.076 159.452 123.608 160.388 122.672C161.348 121.712 161.828 120.488 161.828 119C161.828 117.512 161.348 116.3 160.388 115.364C159.452 114.404 158.264 113.924 156.824 113.924C155.384 113.924 154.196 114.404 153.26 115.364C152.324 116.3 151.856 117.512 151.856 119C151.856 120.488 152.324 121.712 153.26 122.672ZM173.166 127.568C172.566 128.168 171.846 128.468 171.006 128.468C170.166 128.468 169.446 128.168 168.846 127.568C168.246 126.968 167.946 126.248 167.946 125.408C167.946 124.568 168.246 123.848 168.846 123.248C169.446 122.648 170.166 122.348 171.006 122.348C171.846 122.348 172.566 122.648 173.166 123.248C173.766 123.848 174.066 124.568 174.066 125.408C174.066 126.248 173.766 126.968 173.166 127.568Z" fill="white"/>
</g>
<defs>
<radialGradient id="paint0_radial_1572_5123" cx="0" cy="0" r="1" gradientUnits="userSpaceOnUse" gradientTransform="translate(104.488 493.325) rotate(180) scale(78.8734 2.36216)">
<stop stop-color="#231F20"/>
<stop offset="1" stop-color="white"/>
</radialGradient>
<linearGradient id="paint1_linear_1572_5123" x1="108.398" y1="314.943" x2="88.4789" y2="314.943" gradientUnits="userSpaceOnUse">
<stop stop-color="#A3A5A9"/>
<stop offset="0.36" stop-color="#DDDDDD"/>
<stop offset="0.42" stop-color="#CFCFCF"/>
<stop offset="0.55" stop-color="#AAAAAC"/>
<stop offset="0.72" stop-color="#6F7073"/>
<stop offset="0.79" stop-color="#555659"/>
<stop offset="0.9" stop-color="#5D5E61"/>
<stop offset="1" stop-color="#6A6B6E"/>
</linearGradient>
<linearGradient id="paint2_linear_1572_5123" x1="113.549" y1="483.529" x2="77.1766" y2="483.529" gradientUnits="userSpaceOnUse">
<stop stop-color="#E4E4E4"/>
<stop offset="0.32" stop-color="#A3A5A9"/>
<stop offset="0.35" stop-color="#ADAFB2"/>
<stop offset="0.41" stop-color="#C6C7C7"/>
<stop offset="0.45" stop-color="#D0D0D0"/>
<stop offset="0.47" stop-color="#E0E0E0"/>
<stop offset="0.5" stop-color="#EAEAEB"/>
<stop offset="0.54" stop-color="#EEEEEF"/>
<stop offset="0.68" stop-color="#C4C5C7"/>
<stop offset="0.9" stop-color="#7B7E81"/>
</linearGradient>
<radialGradient id="paint3_radial_1572_5123" cx="0" cy="0" r="1" gradientUnits="userSpaceOnUse" gradientTransform="translate(116.275 484.847) rotate(90) scale(12.1991 36.552)">
<stop stop-color="#F9F9F9"/>
<stop offset="0.27" stop-color="#F6F6F6"/>
<stop offset="0.47" stop-color="#ECECED"/>
<stop offset="0.65" stop-color="#DCDDDE"/>
<stop offset="0.82" stop-color="#C5C6C9"/>
<stop offset="0.97" stop-color="#A8AAAE"/>
<stop offset="1" stop-color="#A3A5A9"/>
</radialGradient>
<linearGradient id="paint4_linear_1572_5123" x1="0.709961" y1="83.1229" x2="207.029" y2="83.1229" gradientUnits="userSpaceOnUse">
<stop stop-color="white"/>
<stop offset="1" stop-color="white"/>
</linearGradient>
<radialGradient id="paint5_radial_1572_5123" cx="0" cy="0" r="1" gradientUnits="userSpaceOnUse" gradientTransform="translate(104 19.9929) scale(2.8839 2.88473)">
<stop offset="0.06" stop-color="#414042"/>
<stop offset="0.13" stop-color="#444345"/>
<stop offset="0.19" stop-color="#4F4E51"/>
<stop offset="0.25" stop-color="#616163"/>
<stop offset="0.3" stop-color="#7A7B7E"/>
<stop offset="0.35" stop-color="#939598"/>
<stop offset="0.79" stop-color="#BCBEC0"/>
<stop offset="1" stop-color="#6D6E71"/>
</radialGradient>
<radialGradient id="paint6_radial_1572_5123" cx="0" cy="0" r="1" gradientUnits="userSpaceOnUse" gradientTransform="translate(-130.667 187.21) scale(2.8839 2.88473)">
<stop offset="0.06" stop-color="#414042"/>
<stop offset="0.13" stop-color="#444345"/>
<stop offset="0.19" stop-color="#4F4E51"/>
<stop offset="0.25" stop-color="#616163"/>
<stop offset="0.3" stop-color="#7A7B7E"/>
<stop offset="0.35" stop-color="#939598"/>
<stop offset="0.79" stop-color="#BCBEC0"/>
<stop offset="1" stop-color="#6D6E71"/>
</radialGradient>
<clipPath id="clip0_1572_5123">
<rect width="208" height="491.552" fill="white"/>
</clipPath>
</defs>
</svg>
