<svg width="208" height="492" viewBox="0 0 208 492" fill="none" xmlns="http://www.w3.org/2000/svg">
<g clip-path="url(#clip0_1572_5152)">
<path style="mix-blend-mode:multiply" opacity="0.18" d="M25.0703 489.232C25.0703 490.514 60.4095 491.554 104.002 491.554C147.595 491.554 182.934 490.516 182.934 489.232C182.934 487.949 147.595 486.911 104.002 486.911C60.4095 486.911 25.0703 487.949 25.0703 489.232Z" fill="url(#paint0_radial_1572_5152)"/>
<path d="M108.934 147.363H90.3438V482.524H108.934V147.363Z" fill="url(#paint1_linear_1572_5152)"/>
<path d="M117.594 488.43V481.018C117.594 477.832 82.2178 477.832 82.2178 481.018V488.43C84.0971 488.308 92.3403 488.207 100.4 488.182C108.916 488.158 117.223 488.217 117.594 488.43Z" fill="url(#paint2_linear_1572_5152)"/>
<path d="M87.4143 488.428C90.6736 488.414 95.0737 488.395 99.938 488.375C104.8 488.368 109.198 488.362 112.458 488.358C114.056 488.362 115.35 488.37 116.237 488.387C117.153 488.397 117.534 488.437 117.596 488.432C117.786 488.152 109.7 487.955 99.9298 487.999C90.127 488.019 82.1622 488.275 82.222 488.432C82.2488 488.474 84.2086 488.439 87.4163 488.428H87.4143Z" fill="url(#paint3_radial_1572_5152)"/>
<path opacity="0.8" d="M82.2197 488.317C82.2197 488.5 90.1391 488.649 99.9068 488.649C109.675 488.649 117.594 488.5 117.594 488.317C117.594 488.133 109.675 487.984 99.9068 487.984C90.1391 487.984 82.2197 488.133 82.2197 488.317Z" fill="#231F20"/>
<path d="M61.0651 207.707L0.352539 146.975V61.0828L61.0651 0.352783H146.932L207.649 61.0828V146.975L146.932 207.707H61.0651Z" fill="#ED1C24"/>
<path d="M147.079 208.06H60.9209L0 147.121V60.9363L60.9189 0H147.077L208 60.9363V147.121L147.077 208.06H147.079ZM61.2118 207.356H146.788L207.299 146.83V61.2294L146.786 0.703643H61.2097L0.703441 61.2294V146.83L61.2097 207.356H61.2118Z" fill="white"/>
<path d="M141.606 197.039H65.1021L11.0176 142.553V65.5071L65.1021 11.019H141.606L195.691 65.505V142.551L141.606 197.039ZM66.5688 193.517H140.139L192.169 141.1V66.9577L140.139 14.5414H66.5688L14.5389 66.9577V141.1L66.5688 193.517Z" fill="white"/>
<path opacity="0.35" d="M207.029 61.0334L206.707 61.2088L206.393 61.3862L20.0144 165.148L19.6967 165.325L19.379 165.501L0.709961 146.828V61.2521L61.2018 0.74292H146.753L207.029 61.0334Z" fill="url(#paint4_linear_1572_5152)"/>
<path d="M106.884 19.9929C106.884 21.5859 105.593 22.8756 104 22.8756C102.408 22.8756 101.116 21.5838 101.116 19.9929C101.116 18.4019 102.408 17.1082 104 17.1082C105.593 17.1082 106.884 18.3999 106.884 19.9929Z" fill="url(#paint5_radial_1572_5152)"/>
<path d="M104.311 18.5918V19.7659H105.436V20.2653H104.311V21.4538H103.785V20.2653H102.661V19.7659H103.785V18.5918H104.311Z" fill="#414042"/>
<path d="M106.884 187.21C106.884 188.803 105.593 190.095 104 190.095C102.408 190.095 101.116 188.803 101.116 187.21C101.116 185.617 102.408 184.326 104 184.326C105.593 184.326 106.884 185.617 106.884 187.21Z" fill="url(#paint6_radial_1572_5152)"/>
<path d="M104.311 185.811V186.985H105.436V187.485H104.311V188.673H103.785V187.485H102.661V186.985H103.785V185.811H104.311Z" fill="#414042"/>
<path d="M28.296 124V119.056L39.768 107.248C42.328 104.56 43.608 102.32 43.608 100.528C43.608 99.216 43.192 98.16 42.36 97.36C41.56 96.56 40.52 96.16 39.24 96.16C36.712 96.16 34.84 97.472 33.624 100.096L28.056 96.832C29.112 94.528 30.632 92.768 32.616 91.552C34.6 90.336 36.776 89.728 39.144 89.728C42.184 89.728 44.792 90.688 46.968 92.608C49.144 94.496 50.232 97.056 50.232 100.288C50.232 103.776 48.392 107.36 44.712 111.04L38.136 117.616H50.76V124H28.296ZM67.1513 124.672C62.9593 124.672 59.6633 123.088 57.2633 119.92C54.8953 116.72 53.7113 112.48 53.7113 107.2C53.7113 101.92 54.8953 97.696 57.2633 94.528C59.6633 91.328 62.9593 89.728 67.1513 89.728C71.3753 89.728 74.6713 91.328 77.0393 94.528C79.4073 97.696 80.5913 101.92 80.5913 107.2C80.5913 112.48 79.4073 116.72 77.0393 119.92C74.6713 123.088 71.3753 124.672 67.1513 124.672ZM62.0633 115.408C63.2153 117.264 64.9113 118.192 67.1513 118.192C69.3913 118.192 71.0873 117.248 72.2393 115.36C73.4233 113.472 74.0153 110.752 74.0153 107.2C74.0153 103.616 73.4233 100.88 72.2393 98.992C71.0873 97.104 69.3913 96.16 67.1513 96.16C64.9113 96.16 63.2153 97.104 62.0633 98.992C60.9113 100.88 60.3353 103.616 60.3353 107.2C60.3353 110.784 60.9113 113.52 62.0633 115.408ZM82.7179 124V119.056L94.1899 107.248C96.7499 104.56 98.0299 102.32 98.0299 100.528C98.0299 99.216 97.6139 98.16 96.7819 97.36C95.9819 96.56 94.9419 96.16 93.6619 96.16C91.1339 96.16 89.2619 97.472 88.0459 100.096L82.4779 96.832C83.5339 94.528 85.0539 92.768 87.0379 91.552C89.0219 90.336 91.1979 89.728 93.5659 89.728C96.6059 89.728 99.2139 90.688 101.39 92.608C103.566 94.496 104.654 97.056 104.654 100.288C104.654 103.776 102.814 107.36 99.1339 111.04L92.5579 117.616H105.182V124H82.7179ZM108.218 124V119.056L119.69 107.248C122.25 104.56 123.53 102.32 123.53 100.528C123.53 99.216 123.114 98.16 122.282 97.36C121.482 96.56 120.442 96.16 119.162 96.16C116.634 96.16 114.762 97.472 113.546 100.096L107.978 96.832C109.034 94.528 110.554 92.768 112.538 91.552C114.522 90.336 116.698 89.728 119.066 89.728C122.106 89.728 124.714 90.688 126.89 92.608C129.066 94.496 130.154 97.056 130.154 100.288C130.154 103.776 128.314 107.36 124.634 111.04L118.058 117.616H130.682V124H108.218ZM161.222 99.328C164.454 99.328 167.206 100.56 169.478 103.024C171.782 105.456 172.934 108.448 172.934 112C172.934 115.552 171.782 118.56 169.478 121.024C167.206 123.456 164.454 124.672 161.222 124.672C157.862 124.672 155.27 123.504 153.446 121.168V133.6H147.254V100H153.446V102.832C155.27 100.496 157.862 99.328 161.222 99.328ZM155.318 116.896C156.566 118.144 158.15 118.768 160.07 118.768C161.99 118.768 163.574 118.144 164.822 116.896C166.102 115.616 166.742 113.984 166.742 112C166.742 110.016 166.102 108.4 164.822 107.152C163.574 105.872 161.99 105.232 160.07 105.232C158.15 105.232 156.566 105.872 155.318 107.152C154.07 108.4 153.446 110.016 153.446 112C153.446 113.984 154.07 115.616 155.318 116.896ZM181.859 123.424C181.059 124.224 180.099 124.624 178.979 124.624C177.859 124.624 176.899 124.224 176.099 123.424C175.299 122.624 174.899 121.664 174.899 120.544C174.899 119.424 175.299 118.464 176.099 117.664C176.899 116.864 177.859 116.464 178.979 116.464C180.099 116.464 181.059 116.864 181.859 117.664C182.659 118.464 183.059 119.424 183.059 120.544C183.059 121.664 182.659 122.624 181.859 123.424Z" fill="white"/>
</g>
<defs>
<radialGradient id="paint0_radial_1572_5152" cx="0" cy="0" r="1" gradientUnits="userSpaceOnUse" gradientTransform="translate(104.488 493.325) rotate(180) scale(78.8734 2.36216)">
<stop stop-color="#231F20"/>
<stop offset="1" stop-color="white"/>
</radialGradient>
<linearGradient id="paint1_linear_1572_5152" x1="108.398" y1="314.943" x2="88.4789" y2="314.943" gradientUnits="userSpaceOnUse">
<stop stop-color="#A3A5A9"/>
<stop offset="0.36" stop-color="#DDDDDD"/>
<stop offset="0.42" stop-color="#CFCFCF"/>
<stop offset="0.55" stop-color="#AAAAAC"/>
<stop offset="0.72" stop-color="#6F7073"/>
<stop offset="0.79" stop-color="#555659"/>
<stop offset="0.9" stop-color="#5D5E61"/>
<stop offset="1" stop-color="#6A6B6E"/>
</linearGradient>
<linearGradient id="paint2_linear_1572_5152" x1="113.549" y1="483.529" x2="77.1766" y2="483.529" gradientUnits="userSpaceOnUse">
<stop stop-color="#E4E4E4"/>
<stop offset="0.32" stop-color="#A3A5A9"/>
<stop offset="0.35" stop-color="#ADAFB2"/>
<stop offset="0.41" stop-color="#C6C7C7"/>
<stop offset="0.45" stop-color="#D0D0D0"/>
<stop offset="0.47" stop-color="#E0E0E0"/>
<stop offset="0.5" stop-color="#EAEAEB"/>
<stop offset="0.54" stop-color="#EEEEEF"/>
<stop offset="0.68" stop-color="#C4C5C7"/>
<stop offset="0.9" stop-color="#7B7E81"/>
</linearGradient>
<radialGradient id="paint3_radial_1572_5152" cx="0" cy="0" r="1" gradientUnits="userSpaceOnUse" gradientTransform="translate(116.275 484.847) rotate(90) scale(12.1991 36.552)">
<stop stop-color="#F9F9F9"/>
<stop offset="0.27" stop-color="#F6F6F6"/>
<stop offset="0.47" stop-color="#ECECED"/>
<stop offset="0.65" stop-color="#DCDDDE"/>
<stop offset="0.82" stop-color="#C5C6C9"/>
<stop offset="0.97" stop-color="#A8AAAE"/>
<stop offset="1" stop-color="#A3A5A9"/>
</radialGradient>
<linearGradient id="paint4_linear_1572_5152" x1="0.709961" y1="83.1229" x2="207.029" y2="83.1229" gradientUnits="userSpaceOnUse">
<stop stop-color="white"/>
<stop offset="1" stop-color="white"/>
</linearGradient>
<radialGradient id="paint5_radial_1572_5152" cx="0" cy="0" r="1" gradientUnits="userSpaceOnUse" gradientTransform="translate(104 19.9929) scale(2.8839 2.88473)">
<stop offset="0.06" stop-color="#414042"/>
<stop offset="0.13" stop-color="#444345"/>
<stop offset="0.19" stop-color="#4F4E51"/>
<stop offset="0.25" stop-color="#616163"/>
<stop offset="0.3" stop-color="#7A7B7E"/>
<stop offset="0.35" stop-color="#939598"/>
<stop offset="0.79" stop-color="#BCBEC0"/>
<stop offset="1" stop-color="#6D6E71"/>
</radialGradient>
<radialGradient id="paint6_radial_1572_5152" cx="0" cy="0" r="1" gradientUnits="userSpaceOnUse" gradientTransform="translate(-130.667 187.21) scale(2.8839 2.88473)">
<stop offset="0.06" stop-color="#414042"/>
<stop offset="0.13" stop-color="#444345"/>
<stop offset="0.19" stop-color="#4F4E51"/>
<stop offset="0.25" stop-color="#616163"/>
<stop offset="0.3" stop-color="#7A7B7E"/>
<stop offset="0.35" stop-color="#939598"/>
<stop offset="0.79" stop-color="#BCBEC0"/>
<stop offset="1" stop-color="#6D6E71"/>
</radialGradient>
<clipPath id="clip0_1572_5152">
<rect width="208" height="491.552" fill="white"/>
</clipPath>
</defs>
</svg>
