<svg width="208" height="492" viewBox="0 0 208 492" fill="none" xmlns="http://www.w3.org/2000/svg">
<g clip-path="url(#clip0_1572_5181)">
<path style="mix-blend-mode:multiply" opacity="0.18" d="M25.0703 489.232C25.0703 490.514 60.4095 491.554 104.002 491.554C147.595 491.554 182.934 490.516 182.934 489.232C182.934 487.949 147.595 486.911 104.002 486.911C60.4095 486.911 25.0703 487.949 25.0703 489.232Z" fill="url(#paint0_radial_1572_5181)"/>
<path d="M108.934 147.363H90.3438V482.524H108.934V147.363Z" fill="url(#paint1_linear_1572_5181)"/>
<path d="M117.594 488.43V481.018C117.594 477.832 82.2178 477.832 82.2178 481.018V488.43C84.0971 488.308 92.3403 488.207 100.4 488.182C108.916 488.158 117.223 488.217 117.594 488.43Z" fill="url(#paint2_linear_1572_5181)"/>
<path d="M87.4143 488.428C90.6736 488.414 95.0737 488.395 99.938 488.375C104.8 488.368 109.198 488.362 112.458 488.358C114.056 488.362 115.35 488.37 116.237 488.387C117.153 488.397 117.534 488.437 117.596 488.432C117.786 488.152 109.7 487.955 99.9298 487.999C90.127 488.019 82.1622 488.275 82.222 488.432C82.2488 488.474 84.2086 488.439 87.4163 488.428H87.4143Z" fill="url(#paint3_radial_1572_5181)"/>
<path opacity="0.8" d="M82.2197 488.317C82.2197 488.5 90.1391 488.649 99.9068 488.649C109.675 488.649 117.594 488.5 117.594 488.317C117.594 488.133 109.675 487.984 99.9068 487.984C90.1391 487.984 82.2197 488.133 82.2197 488.317Z" fill="#231F20"/>
<path d="M61.0651 207.707L0.352539 146.975V61.0828L61.0651 0.352783H146.932L207.649 61.0828V146.975L146.932 207.707H61.0651Z" fill="#ED1C24"/>
<path d="M147.079 208.06H60.9209L0 147.121V60.9363L60.9189 0H147.077L208 60.9363V147.121L147.077 208.06H147.079ZM61.2118 207.356H146.788L207.299 146.83V61.2294L146.786 0.703643H61.2097L0.703441 61.2294V146.83L61.2097 207.356H61.2118Z" fill="white"/>
<path d="M141.606 197.039H65.1021L11.0176 142.553V65.5071L65.1021 11.019H141.606L195.691 65.505V142.551L141.606 197.039ZM66.5688 193.517H140.139L192.169 141.1V66.9577L140.139 14.5414H66.5688L14.5389 66.9577V141.1L66.5688 193.517Z" fill="white"/>
<path opacity="0.35" d="M207.029 61.0334L206.707 61.2088L206.393 61.3862L20.0144 165.148L19.6967 165.325L19.379 165.501L0.709961 146.828V61.2521L61.2018 0.74292H146.753L207.029 61.0334Z" fill="url(#paint4_linear_1572_5181)"/>
<path d="M106.884 19.9929C106.884 21.5859 105.593 22.8756 104 22.8756C102.408 22.8756 101.116 21.5838 101.116 19.9929C101.116 18.4019 102.408 17.1082 104 17.1082C105.593 17.1082 106.884 18.3999 106.884 19.9929Z" fill="url(#paint5_radial_1572_5181)"/>
<path d="M104.311 18.5918V19.7659H105.436V20.2653H104.311V21.4538H103.785V20.2653H102.661V19.7659H103.785V18.5918H104.311Z" fill="#414042"/>
<path d="M106.884 187.21C106.884 188.803 105.593 190.095 104 190.095C102.408 190.095 101.116 188.803 101.116 187.21C101.116 185.617 102.408 184.326 104 184.326C105.593 184.326 106.884 185.617 106.884 187.21Z" fill="url(#paint6_radial_1572_5181)"/>
<path d="M104.311 185.811V186.985H105.436V187.485H104.311V188.673H103.785V187.485H102.661V186.985H103.785V185.811H104.311Z" fill="#414042"/>
<path d="M28.296 123V118.056L39.768 106.248C42.328 103.56 43.608 101.32 43.608 99.528C43.608 98.216 43.192 97.16 42.36 96.36C41.56 95.56 40.52 95.16 39.24 95.16C36.712 95.16 34.84 96.472 33.624 99.096L28.056 95.832C29.112 93.528 30.632 91.768 32.616 90.552C34.6 89.336 36.776 88.728 39.144 88.728C42.184 88.728 44.792 89.688 46.968 91.608C49.144 93.496 50.232 96.056 50.232 99.288C50.232 102.776 48.392 106.36 44.712 110.04L38.136 116.616H50.76V123H28.296ZM67.1513 123.672C62.9593 123.672 59.6633 122.088 57.2633 118.92C54.8953 115.72 53.7113 111.48 53.7113 106.2C53.7113 100.92 54.8953 96.696 57.2633 93.528C59.6633 90.328 62.9593 88.728 67.1513 88.728C71.3753 88.728 74.6713 90.328 77.0393 93.528C79.4073 96.696 80.5913 100.92 80.5913 106.2C80.5913 111.48 79.4073 115.72 77.0393 118.92C74.6713 122.088 71.3753 123.672 67.1513 123.672ZM62.0633 114.408C63.2153 116.264 64.9113 117.192 67.1513 117.192C69.3913 117.192 71.0873 116.248 72.2393 114.36C73.4233 112.472 74.0153 109.752 74.0153 106.2C74.0153 102.616 73.4233 99.88 72.2393 97.992C71.0873 96.104 69.3913 95.16 67.1513 95.16C64.9113 95.16 63.2153 96.104 62.0633 97.992C60.9113 99.88 60.3353 102.616 60.3353 106.2C60.3353 109.784 60.9113 112.52 62.0633 114.408ZM82.7179 123V118.056L94.1899 106.248C96.7499 103.56 98.0299 101.32 98.0299 99.528C98.0299 98.216 97.6139 97.16 96.7819 96.36C95.9819 95.56 94.9419 95.16 93.6619 95.16C91.1339 95.16 89.2619 96.472 88.0459 99.096L82.4779 95.832C83.5339 93.528 85.0539 91.768 87.0379 90.552C89.0219 89.336 91.1979 88.728 93.5659 88.728C96.6059 88.728 99.2139 89.688 101.39 91.608C103.566 93.496 104.654 96.056 104.654 99.288C104.654 102.776 102.814 106.36 99.1339 110.04L92.5579 116.616H105.182V123H82.7179ZM115.579 89.4H121.339V123H114.715V96.408L108.379 98.184L106.747 92.52L115.579 89.4ZM153.581 98.328C156.813 98.328 159.565 99.56 161.837 102.024C164.141 104.456 165.293 107.448 165.293 111C165.293 114.552 164.141 117.56 161.837 120.024C159.565 122.456 156.813 123.672 153.581 123.672C150.221 123.672 147.629 122.504 145.805 120.168V132.6H139.613V99H145.805V101.832C147.629 99.496 150.221 98.328 153.581 98.328ZM147.677 115.896C148.925 117.144 150.509 117.768 152.429 117.768C154.349 117.768 155.933 117.144 157.181 115.896C158.461 114.616 159.101 112.984 159.101 111C159.101 109.016 158.461 107.4 157.181 106.152C155.933 104.872 154.349 104.232 152.429 104.232C150.509 104.232 148.925 104.872 147.677 106.152C146.429 107.4 145.805 109.016 145.805 111C145.805 112.984 146.429 114.616 147.677 115.896ZM174.218 122.424C173.418 123.224 172.458 123.624 171.338 123.624C170.218 123.624 169.258 123.224 168.458 122.424C167.658 121.624 167.258 120.664 167.258 119.544C167.258 118.424 167.658 117.464 168.458 116.664C169.258 115.864 170.218 115.464 171.338 115.464C172.458 115.464 173.418 115.864 174.218 116.664C175.018 117.464 175.418 118.424 175.418 119.544C175.418 120.664 175.018 121.624 174.218 122.424Z" fill="white"/>
</g>
<defs>
<radialGradient id="paint0_radial_1572_5181" cx="0" cy="0" r="1" gradientUnits="userSpaceOnUse" gradientTransform="translate(104.488 493.325) rotate(180) scale(78.8734 2.36216)">
<stop stop-color="#231F20"/>
<stop offset="1" stop-color="white"/>
</radialGradient>
<linearGradient id="paint1_linear_1572_5181" x1="108.398" y1="314.943" x2="88.4789" y2="314.943" gradientUnits="userSpaceOnUse">
<stop stop-color="#A3A5A9"/>
<stop offset="0.36" stop-color="#DDDDDD"/>
<stop offset="0.42" stop-color="#CFCFCF"/>
<stop offset="0.55" stop-color="#AAAAAC"/>
<stop offset="0.72" stop-color="#6F7073"/>
<stop offset="0.79" stop-color="#555659"/>
<stop offset="0.9" stop-color="#5D5E61"/>
<stop offset="1" stop-color="#6A6B6E"/>
</linearGradient>
<linearGradient id="paint2_linear_1572_5181" x1="113.549" y1="483.529" x2="77.1766" y2="483.529" gradientUnits="userSpaceOnUse">
<stop stop-color="#E4E4E4"/>
<stop offset="0.32" stop-color="#A3A5A9"/>
<stop offset="0.35" stop-color="#ADAFB2"/>
<stop offset="0.41" stop-color="#C6C7C7"/>
<stop offset="0.45" stop-color="#D0D0D0"/>
<stop offset="0.47" stop-color="#E0E0E0"/>
<stop offset="0.5" stop-color="#EAEAEB"/>
<stop offset="0.54" stop-color="#EEEEEF"/>
<stop offset="0.68" stop-color="#C4C5C7"/>
<stop offset="0.9" stop-color="#7B7E81"/>
</linearGradient>
<radialGradient id="paint3_radial_1572_5181" cx="0" cy="0" r="1" gradientUnits="userSpaceOnUse" gradientTransform="translate(116.275 484.847) rotate(90) scale(12.1991 36.552)">
<stop stop-color="#F9F9F9"/>
<stop offset="0.27" stop-color="#F6F6F6"/>
<stop offset="0.47" stop-color="#ECECED"/>
<stop offset="0.65" stop-color="#DCDDDE"/>
<stop offset="0.82" stop-color="#C5C6C9"/>
<stop offset="0.97" stop-color="#A8AAAE"/>
<stop offset="1" stop-color="#A3A5A9"/>
</radialGradient>
<linearGradient id="paint4_linear_1572_5181" x1="0.709961" y1="83.1229" x2="207.029" y2="83.1229" gradientUnits="userSpaceOnUse">
<stop stop-color="white"/>
<stop offset="1" stop-color="white"/>
</linearGradient>
<radialGradient id="paint5_radial_1572_5181" cx="0" cy="0" r="1" gradientUnits="userSpaceOnUse" gradientTransform="translate(104 19.9929) scale(2.8839 2.88473)">
<stop offset="0.06" stop-color="#414042"/>
<stop offset="0.13" stop-color="#444345"/>
<stop offset="0.19" stop-color="#4F4E51"/>
<stop offset="0.25" stop-color="#616163"/>
<stop offset="0.3" stop-color="#7A7B7E"/>
<stop offset="0.35" stop-color="#939598"/>
<stop offset="0.79" stop-color="#BCBEC0"/>
<stop offset="1" stop-color="#6D6E71"/>
</radialGradient>
<radialGradient id="paint6_radial_1572_5181" cx="0" cy="0" r="1" gradientUnits="userSpaceOnUse" gradientTransform="translate(-130.667 187.21) scale(2.8839 2.88473)">
<stop offset="0.06" stop-color="#414042"/>
<stop offset="0.13" stop-color="#444345"/>
<stop offset="0.19" stop-color="#4F4E51"/>
<stop offset="0.25" stop-color="#616163"/>
<stop offset="0.3" stop-color="#7A7B7E"/>
<stop offset="0.35" stop-color="#939598"/>
<stop offset="0.79" stop-color="#BCBEC0"/>
<stop offset="1" stop-color="#6D6E71"/>
</radialGradient>
<clipPath id="clip0_1572_5181">
<rect width="208" height="491.552" fill="white"/>
</clipPath>
</defs>
</svg>
