<svg width="208" height="492" viewBox="0 0 208 492" fill="none" xmlns="http://www.w3.org/2000/svg">
<g clip-path="url(#clip0_1572_5094)">
<path style="mix-blend-mode:multiply" opacity="0.18" d="M25 489.5C25 490.88 60.3697 492 104 492C147.63 492 183 490.882 183 489.5C183 488.118 147.63 487 104 487C60.3697 487 25 488.118 25 489.5Z" fill="url(#paint0_radial_1572_5094)"/>
<path d="M109 147H90V483H109V147Z" fill="url(#paint1_linear_1572_5094)"/>
<path d="M117 489V481.438C117 478.187 82 478.187 82 481.438V489C83.8593 488.876 92.0149 488.773 99.9888 488.747C108.414 488.722 116.633 488.783 117 489Z" fill="url(#paint2_linear_1572_5094)"/>
<path d="M87.1366 489.443C90.3608 489.428 94.7134 489.409 99.5252 489.388C104.335 489.382 108.686 489.376 111.91 489.372C113.491 489.376 114.771 489.384 115.648 489.401C116.554 489.412 116.932 489.451 116.993 489.447C117.181 489.162 109.181 488.962 99.517 489.006C89.82 489.027 81.9412 489.288 82.0003 489.447C82.0269 489.489 83.9655 489.454 87.1386 489.443H87.1366Z" fill="url(#paint3_radial_1572_5094)"/>
<path opacity="0.8" d="M82.002 488.668C82.002 488.852 89.8358 489 99.498 489C109.16 489 116.994 488.852 116.994 488.668C116.994 488.485 109.16 488.337 99.498 488.337C89.8358 488.337 82.002 488.485 82.002 488.668Z" fill="#231F20"/>
<path d="M61.0651 207.896L0.352539 147.109V61.1387L61.0651 0.353271H146.932L207.649 61.1387V147.109L146.932 207.896H61.0651Z" fill="#ED1C24"/>
<path d="M147.079 208.249H60.9209L0 147.255V60.9919L60.9189 0H147.077L208 60.9919V147.255L147.077 208.249H147.079ZM61.2118 207.545H146.788L207.299 146.964V61.2852L146.786 0.704285H61.2097L0.703441 61.2852V146.964L61.2097 207.545H61.2118Z" fill="white"/>
<path d="M141.606 197.219H65.1021L11.0176 142.683V65.5668L65.1021 11.0291H141.606L195.691 65.5647V142.681L141.606 197.219ZM66.5688 193.693H140.139L192.169 141.229V67.0187L140.139 14.5546H66.5688L14.5389 67.0187V141.229L66.5688 193.693Z" fill="white"/>
<path opacity="0.35" d="M207.029 61.0891L206.707 61.2647L206.393 61.4423L20.0144 165.299L19.6967 165.476L19.379 165.652L0.709961 146.962V61.308L61.2018 0.743652H146.753L207.029 61.0891Z" fill="url(#paint4_linear_1572_5094)"/>
<path d="M106.884 20.0111C106.884 21.6056 105.593 22.8964 104 22.8964C102.408 22.8964 101.116 21.6035 101.116 20.0111C101.116 18.4188 102.408 17.1238 104 17.1238C105.593 17.1238 106.884 18.4167 106.884 20.0111Z" fill="url(#paint5_radial_1572_5094)"/>
<path d="M104.311 18.6089V19.7841H105.436V20.2839H104.311V21.4735H103.785V20.2839H102.661V19.7841H103.785V18.6089H104.311Z" fill="#414042"/>
<path d="M106.884 187.38C106.884 188.975 105.593 190.268 104 190.268C102.408 190.268 101.116 188.975 101.116 187.38C101.116 185.786 102.408 184.493 104 184.493C105.593 184.493 106.884 185.786 106.884 187.38Z" fill="url(#paint6_radial_1572_5094)"/>
<path d="M104.311 185.98V187.155H105.436V187.655H104.311V188.845H103.785V187.655H102.661V187.155H103.785V185.98H104.311Z" fill="#414042"/>
<path d="M32.296 123V118.056L43.768 106.248C46.328 103.56 47.608 101.32 47.608 99.528C47.608 98.216 47.192 97.16 46.36 96.36C45.56 95.56 44.52 95.16 43.24 95.16C40.712 95.16 38.84 96.472 37.624 99.096L32.056 95.832C33.112 93.528 34.632 91.768 36.616 90.552C38.6 89.336 40.776 88.728 43.144 88.728C46.184 88.728 48.792 89.688 50.968 91.608C53.144 93.496 54.232 96.056 54.232 99.288C54.232 102.776 52.392 106.36 48.712 110.04L42.136 116.616H54.76V123H32.296ZM71.1513 123.672C66.9593 123.672 63.6633 122.088 61.2633 118.92C58.8953 115.72 57.7113 111.48 57.7113 106.2C57.7113 100.92 58.8953 96.696 61.2633 93.528C63.6633 90.328 66.9593 88.728 71.1513 88.728C75.3753 88.728 78.6713 90.328 81.0393 93.528C83.4073 96.696 84.5913 100.92 84.5913 106.2C84.5913 111.48 83.4073 115.72 81.0393 118.92C78.6713 122.088 75.3753 123.672 71.1513 123.672ZM66.0633 114.408C67.2153 116.264 68.9113 117.192 71.1513 117.192C73.3913 117.192 75.0873 116.248 76.2393 114.36C77.4233 112.472 78.0153 109.752 78.0153 106.2C78.0153 102.616 77.4233 99.88 76.2393 97.992C75.0873 96.104 73.3913 95.16 71.1513 95.16C68.9113 95.16 67.2153 96.104 66.0633 97.992C64.9113 99.88 64.3353 102.616 64.3353 106.2C64.3353 109.784 64.9113 112.52 66.0633 114.408ZM94.6881 89.4H100.448V123H93.8241V96.408L87.4881 98.184L85.8561 92.52L94.6881 89.4ZM129.331 100.392C129.331 102.984 128.659 105.256 127.315 107.208H127.363L116.899 123H109.315L116.803 112.056C113.315 111.992 110.467 110.888 108.259 108.744C106.083 106.568 104.995 103.784 104.995 100.392C104.995 96.968 106.115 94.168 108.355 91.992C110.627 89.816 113.555 88.728 117.139 88.728C120.755 88.728 123.683 89.816 125.923 91.992C128.195 94.136 129.331 96.936 129.331 100.392ZM111.571 100.392C111.571 102.056 112.099 103.384 113.155 104.376C114.243 105.368 115.571 105.864 117.139 105.864C118.771 105.864 120.115 105.368 121.171 104.376C122.227 103.384 122.755 102.056 122.755 100.392C122.755 98.728 122.227 97.416 121.171 96.456C120.115 95.464 118.771 94.968 117.139 94.968C115.571 94.968 114.243 95.464 113.155 96.456C112.099 97.448 111.571 98.76 111.571 100.392ZM159.222 98.328C162.454 98.328 165.206 99.56 167.478 102.024C169.782 104.456 170.934 107.448 170.934 111C170.934 114.552 169.782 117.56 167.478 120.024C165.206 122.456 162.454 123.672 159.222 123.672C155.862 123.672 153.27 122.504 151.446 120.168V132.6H145.254V99H151.446V101.832C153.27 99.496 155.862 98.328 159.222 98.328ZM153.318 115.896C154.566 117.144 156.15 117.768 158.07 117.768C159.99 117.768 161.574 117.144 162.822 115.896C164.102 114.616 164.742 112.984 164.742 111C164.742 109.016 164.102 107.4 162.822 106.152C161.574 104.872 159.99 104.232 158.07 104.232C156.15 104.232 154.566 104.872 153.318 106.152C152.07 107.4 151.446 109.016 151.446 111C151.446 112.984 152.07 114.616 153.318 115.896ZM179.859 122.424C179.059 123.224 178.099 123.624 176.979 123.624C175.859 123.624 174.899 123.224 174.099 122.424C173.299 121.624 172.899 120.664 172.899 119.544C172.899 118.424 173.299 117.464 174.099 116.664C174.899 115.864 175.859 115.464 176.979 115.464C178.099 115.464 179.059 115.864 179.859 116.664C180.659 117.464 181.059 118.424 181.059 119.544C181.059 120.664 180.659 121.624 179.859 122.424Z" fill="white"/>
</g>
<defs>
<radialGradient id="paint0_radial_1572_5094" cx="0" cy="0" r="1" gradientUnits="userSpaceOnUse" gradientTransform="translate(104.486 493.908) rotate(180) scale(78.9415 2.54389)">
<stop stop-color="#231F20"/>
<stop offset="1" stop-color="white"/>
</radialGradient>
<linearGradient id="paint1_linear_1572_5094" x1="108.452" y1="315" x2="88.0941" y2="315" gradientUnits="userSpaceOnUse">
<stop stop-color="#A3A5A9"/>
<stop offset="0.36" stop-color="#DDDDDD"/>
<stop offset="0.42" stop-color="#CFCFCF"/>
<stop offset="0.55" stop-color="#AAAAAC"/>
<stop offset="0.72" stop-color="#6F7073"/>
<stop offset="0.79" stop-color="#555659"/>
<stop offset="0.9" stop-color="#5D5E61"/>
<stop offset="1" stop-color="#6A6B6E"/>
</linearGradient>
<linearGradient id="paint2_linear_1572_5094" x1="112.998" y1="484" x2="77.0125" y2="484" gradientUnits="userSpaceOnUse">
<stop stop-color="#E4E4E4"/>
<stop offset="0.32" stop-color="#A3A5A9"/>
<stop offset="0.35" stop-color="#ADAFB2"/>
<stop offset="0.41" stop-color="#C6C7C7"/>
<stop offset="0.45" stop-color="#D0D0D0"/>
<stop offset="0.47" stop-color="#E0E0E0"/>
<stop offset="0.5" stop-color="#EAEAEB"/>
<stop offset="0.54" stop-color="#EEEEEF"/>
<stop offset="0.68" stop-color="#C4C5C7"/>
<stop offset="0.9" stop-color="#7B7E81"/>
</linearGradient>
<radialGradient id="paint3_radial_1572_5094" cx="0" cy="0" r="1" gradientUnits="userSpaceOnUse" gradientTransform="translate(115.685 485.8) rotate(90) scale(12.4074 36.1576)">
<stop stop-color="#F9F9F9"/>
<stop offset="0.27" stop-color="#F6F6F6"/>
<stop offset="0.47" stop-color="#ECECED"/>
<stop offset="0.65" stop-color="#DCDDDE"/>
<stop offset="0.82" stop-color="#C5C6C9"/>
<stop offset="0.97" stop-color="#A8AAAE"/>
<stop offset="1" stop-color="#A3A5A9"/>
</radialGradient>
<linearGradient id="paint4_linear_1572_5094" x1="0.709961" y1="83.1987" x2="207.029" y2="83.1987" gradientUnits="userSpaceOnUse">
<stop stop-color="white"/>
<stop offset="1" stop-color="white"/>
</linearGradient>
<radialGradient id="paint5_radial_1572_5094" cx="0" cy="0" r="1" gradientUnits="userSpaceOnUse" gradientTransform="translate(104 20.0111) scale(2.8839 2.88736)">
<stop offset="0.06" stop-color="#414042"/>
<stop offset="0.13" stop-color="#444345"/>
<stop offset="0.19" stop-color="#4F4E51"/>
<stop offset="0.25" stop-color="#616163"/>
<stop offset="0.3" stop-color="#7A7B7E"/>
<stop offset="0.35" stop-color="#939598"/>
<stop offset="0.79" stop-color="#BCBEC0"/>
<stop offset="1" stop-color="#6D6E71"/>
</radialGradient>
<radialGradient id="paint6_radial_1572_5094" cx="0" cy="0" r="1" gradientUnits="userSpaceOnUse" gradientTransform="translate(-130.667 187.38) scale(2.8839 2.88736)">
<stop offset="0.06" stop-color="#414042"/>
<stop offset="0.13" stop-color="#444345"/>
<stop offset="0.19" stop-color="#4F4E51"/>
<stop offset="0.25" stop-color="#616163"/>
<stop offset="0.3" stop-color="#7A7B7E"/>
<stop offset="0.35" stop-color="#939598"/>
<stop offset="0.79" stop-color="#BCBEC0"/>
<stop offset="1" stop-color="#6D6E71"/>
</radialGradient>
<clipPath id="clip0_1572_5094">
<rect width="208" height="492" fill="white"/>
</clipPath>
</defs>
</svg>
