<svg width="208" height="492" viewBox="0 0 208 492" fill="none" xmlns="http://www.w3.org/2000/svg">
<g clip-path="url(#clip0_1572_5210)">
<path style="mix-blend-mode:multiply" opacity="0.18" d="M25.0703 489.232C25.0703 490.514 60.4095 491.554 104.002 491.554C147.595 491.554 182.934 490.516 182.934 489.232C182.934 487.949 147.595 486.911 104.002 486.911C60.4095 486.911 25.0703 487.949 25.0703 489.232Z" fill="url(#paint0_radial_1572_5210)"/>
<path d="M108.934 147.363H90.3438V482.524H108.934V147.363Z" fill="url(#paint1_linear_1572_5210)"/>
<path d="M117.594 488.43V481.018C117.594 477.832 82.2178 477.832 82.2178 481.018V488.43C84.0971 488.308 92.3403 488.207 100.4 488.182C108.916 488.158 117.223 488.217 117.594 488.43Z" fill="url(#paint2_linear_1572_5210)"/>
<path d="M87.4143 488.428C90.6736 488.414 95.0737 488.395 99.938 488.375C104.8 488.368 109.198 488.362 112.458 488.358C114.056 488.362 115.35 488.37 116.237 488.387C117.153 488.397 117.534 488.437 117.596 488.432C117.786 488.152 109.7 487.955 99.9298 487.999C90.127 488.019 82.1622 488.275 82.222 488.432C82.2488 488.474 84.2086 488.439 87.4163 488.428H87.4143Z" fill="url(#paint3_radial_1572_5210)"/>
<path opacity="0.8" d="M82.2197 488.317C82.2197 488.5 90.1391 488.649 99.9068 488.649C109.675 488.649 117.594 488.5 117.594 488.317C117.594 488.133 109.675 487.984 99.9068 487.984C90.1391 487.984 82.2197 488.133 82.2197 488.317Z" fill="#231F20"/>
<path d="M61.0651 207.707L0.352539 146.975V61.0828L61.0651 0.352783H146.932L207.649 61.0828V146.975L146.932 207.707H61.0651Z" fill="#ED1C24"/>
<path d="M147.079 208.06H60.9209L0 147.121V60.9363L60.9189 0H147.077L208 60.9363V147.121L147.077 208.06H147.079ZM61.2118 207.356H146.788L207.299 146.83V61.2294L146.786 0.703643H61.2097L0.703441 61.2294V146.83L61.2097 207.356H61.2118Z" fill="white"/>
<path d="M141.606 197.039H65.1021L11.0176 142.553V65.5071L65.1021 11.019H141.606L195.691 65.505V142.551L141.606 197.039ZM66.5688 193.517H140.139L192.169 141.1V66.9577L140.139 14.5414H66.5688L14.5389 66.9577V141.1L66.5688 193.517Z" fill="white"/>
<path opacity="0.35" d="M207.029 61.0334L206.707 61.2088L206.393 61.3862L20.0144 165.148L19.6967 165.325L19.379 165.501L0.709961 146.828V61.2521L61.2018 0.74292H146.753L207.029 61.0334Z" fill="url(#paint4_linear_1572_5210)"/>
<path d="M106.884 19.9929C106.884 21.5859 105.593 22.8756 104 22.8756C102.408 22.8756 101.116 21.5838 101.116 19.9929C101.116 18.4019 102.408 17.1082 104 17.1082C105.593 17.1082 106.884 18.3999 106.884 19.9929Z" fill="url(#paint5_radial_1572_5210)"/>
<path d="M104.311 18.5918V19.7659H105.436V20.2653H104.311V21.4538H103.785V20.2653H102.661V19.7659H103.785V18.5918H104.311Z" fill="#414042"/>
<path d="M106.884 187.21C106.884 188.803 105.593 190.095 104 190.095C102.408 190.095 101.116 188.803 101.116 187.21C101.116 185.617 102.408 184.326 104 184.326C105.593 184.326 106.884 185.617 106.884 187.21Z" fill="url(#paint6_radial_1572_5210)"/>
<path d="M104.311 185.811V186.985H105.436V187.485H104.311V188.673H103.785V187.485H102.661V186.985H103.785V185.811H104.311Z" fill="#414042"/>
<path d="M26.296 123V118.056L37.768 106.248C40.328 103.56 41.608 101.32 41.608 99.528C41.608 98.216 41.192 97.16 40.36 96.36C39.56 95.56 38.52 95.16 37.24 95.16C34.712 95.16 32.84 96.472 31.624 99.096L26.056 95.832C27.112 93.528 28.632 91.768 30.616 90.552C32.6 89.336 34.776 88.728 37.144 88.728C40.184 88.728 42.792 89.688 44.968 91.608C47.144 93.496 48.232 96.056 48.232 99.288C48.232 102.776 46.392 106.36 42.712 110.04L36.136 116.616H48.76V123H26.296ZM65.1513 123.672C60.9593 123.672 57.6633 122.088 55.2633 118.92C52.8953 115.72 51.7113 111.48 51.7113 106.2C51.7113 100.92 52.8953 96.696 55.2633 93.528C57.6633 90.328 60.9593 88.728 65.1513 88.728C69.3753 88.728 72.6713 90.328 75.0393 93.528C77.4073 96.696 78.5913 100.92 78.5913 106.2C78.5913 111.48 77.4073 115.72 75.0393 118.92C72.6713 122.088 69.3753 123.672 65.1513 123.672ZM60.0633 114.408C61.2153 116.264 62.9113 117.192 65.1513 117.192C67.3913 117.192 69.0873 116.248 70.2393 114.36C71.4233 112.472 72.0153 109.752 72.0153 106.2C72.0153 102.616 71.4233 99.88 70.2393 97.992C69.0873 96.104 67.3913 95.16 65.1513 95.16C62.9113 95.16 61.2153 96.104 60.0633 97.992C58.9113 99.88 58.3353 102.616 58.3353 106.2C58.3353 109.784 58.9113 112.52 60.0633 114.408ZM80.7179 123V118.056L92.1899 106.248C94.7499 103.56 96.0299 101.32 96.0299 99.528C96.0299 98.216 95.6139 97.16 94.7819 96.36C93.9819 95.56 92.9419 95.16 91.6619 95.16C89.1339 95.16 87.2619 96.472 86.0459 99.096L80.4779 95.832C81.5339 93.528 83.0539 91.768 85.0379 90.552C87.0219 89.336 89.1979 88.728 91.5659 88.728C94.6059 88.728 97.2139 89.688 99.3899 91.608C101.566 93.496 102.654 96.056 102.654 99.288C102.654 102.776 100.814 106.36 97.1339 110.04L90.5579 116.616H103.182V123H80.7179ZM119.573 123.672C115.381 123.672 112.085 122.088 109.685 118.92C107.317 115.72 106.133 111.48 106.133 106.2C106.133 100.92 107.317 96.696 109.685 93.528C112.085 90.328 115.381 88.728 119.573 88.728C123.797 88.728 127.093 90.328 129.461 93.528C131.829 96.696 133.013 100.92 133.013 106.2C133.013 111.48 131.829 115.72 129.461 118.92C127.093 122.088 123.797 123.672 119.573 123.672ZM114.485 114.408C115.637 116.264 117.333 117.192 119.573 117.192C121.813 117.192 123.509 116.248 124.661 114.36C125.845 112.472 126.437 109.752 126.437 106.2C126.437 102.616 125.845 99.88 124.661 97.992C123.509 96.104 121.813 95.16 119.573 95.16C117.333 95.16 115.637 96.104 114.485 97.992C113.333 99.88 112.757 102.616 112.757 106.2C112.757 109.784 113.333 112.52 114.485 114.408ZM163.488 98.328C166.72 98.328 169.472 99.56 171.744 102.024C174.048 104.456 175.2 107.448 175.2 111C175.2 114.552 174.048 117.56 171.744 120.024C169.472 122.456 166.72 123.672 163.488 123.672C160.128 123.672 157.536 122.504 155.712 120.168V132.6H149.52V99H155.712V101.832C157.536 99.496 160.128 98.328 163.488 98.328ZM157.584 115.896C158.832 117.144 160.416 117.768 162.336 117.768C164.256 117.768 165.84 117.144 167.088 115.896C168.368 114.616 169.008 112.984 169.008 111C169.008 109.016 168.368 107.4 167.088 106.152C165.84 104.872 164.256 104.232 162.336 104.232C160.416 104.232 158.832 104.872 157.584 106.152C156.336 107.4 155.712 109.016 155.712 111C155.712 112.984 156.336 114.616 157.584 115.896ZM184.125 122.424C183.325 123.224 182.365 123.624 181.245 123.624C180.125 123.624 179.165 123.224 178.365 122.424C177.565 121.624 177.165 120.664 177.165 119.544C177.165 118.424 177.565 117.464 178.365 116.664C179.165 115.864 180.125 115.464 181.245 115.464C182.365 115.464 183.325 115.864 184.125 116.664C184.925 117.464 185.325 118.424 185.325 119.544C185.325 120.664 184.925 121.624 184.125 122.424Z" fill="white"/>
</g>
<defs>
<radialGradient id="paint0_radial_1572_5210" cx="0" cy="0" r="1" gradientUnits="userSpaceOnUse" gradientTransform="translate(104.488 493.325) rotate(180) scale(78.8734 2.36216)">
<stop stop-color="#231F20"/>
<stop offset="1" stop-color="white"/>
</radialGradient>
<linearGradient id="paint1_linear_1572_5210" x1="108.398" y1="314.943" x2="88.4789" y2="314.943" gradientUnits="userSpaceOnUse">
<stop stop-color="#A3A5A9"/>
<stop offset="0.36" stop-color="#DDDDDD"/>
<stop offset="0.42" stop-color="#CFCFCF"/>
<stop offset="0.55" stop-color="#AAAAAC"/>
<stop offset="0.72" stop-color="#6F7073"/>
<stop offset="0.79" stop-color="#555659"/>
<stop offset="0.9" stop-color="#5D5E61"/>
<stop offset="1" stop-color="#6A6B6E"/>
</linearGradient>
<linearGradient id="paint2_linear_1572_5210" x1="113.549" y1="483.529" x2="77.1766" y2="483.529" gradientUnits="userSpaceOnUse">
<stop stop-color="#E4E4E4"/>
<stop offset="0.32" stop-color="#A3A5A9"/>
<stop offset="0.35" stop-color="#ADAFB2"/>
<stop offset="0.41" stop-color="#C6C7C7"/>
<stop offset="0.45" stop-color="#D0D0D0"/>
<stop offset="0.47" stop-color="#E0E0E0"/>
<stop offset="0.5" stop-color="#EAEAEB"/>
<stop offset="0.54" stop-color="#EEEEEF"/>
<stop offset="0.68" stop-color="#C4C5C7"/>
<stop offset="0.9" stop-color="#7B7E81"/>
</linearGradient>
<radialGradient id="paint3_radial_1572_5210" cx="0" cy="0" r="1" gradientUnits="userSpaceOnUse" gradientTransform="translate(116.275 484.847) rotate(90) scale(12.1991 36.552)">
<stop stop-color="#F9F9F9"/>
<stop offset="0.27" stop-color="#F6F6F6"/>
<stop offset="0.47" stop-color="#ECECED"/>
<stop offset="0.65" stop-color="#DCDDDE"/>
<stop offset="0.82" stop-color="#C5C6C9"/>
<stop offset="0.97" stop-color="#A8AAAE"/>
<stop offset="1" stop-color="#A3A5A9"/>
</radialGradient>
<linearGradient id="paint4_linear_1572_5210" x1="0.709961" y1="83.1229" x2="207.029" y2="83.1229" gradientUnits="userSpaceOnUse">
<stop stop-color="white"/>
<stop offset="1" stop-color="white"/>
</linearGradient>
<radialGradient id="paint5_radial_1572_5210" cx="0" cy="0" r="1" gradientUnits="userSpaceOnUse" gradientTransform="translate(104 19.9929) scale(2.8839 2.88473)">
<stop offset="0.06" stop-color="#414042"/>
<stop offset="0.13" stop-color="#444345"/>
<stop offset="0.19" stop-color="#4F4E51"/>
<stop offset="0.25" stop-color="#616163"/>
<stop offset="0.3" stop-color="#7A7B7E"/>
<stop offset="0.35" stop-color="#939598"/>
<stop offset="0.79" stop-color="#BCBEC0"/>
<stop offset="1" stop-color="#6D6E71"/>
</radialGradient>
<radialGradient id="paint6_radial_1572_5210" cx="0" cy="0" r="1" gradientUnits="userSpaceOnUse" gradientTransform="translate(-130.667 187.21) scale(2.8839 2.88473)">
<stop offset="0.06" stop-color="#414042"/>
<stop offset="0.13" stop-color="#444345"/>
<stop offset="0.19" stop-color="#4F4E51"/>
<stop offset="0.25" stop-color="#616163"/>
<stop offset="0.3" stop-color="#7A7B7E"/>
<stop offset="0.35" stop-color="#939598"/>
<stop offset="0.79" stop-color="#BCBEC0"/>
<stop offset="1" stop-color="#6D6E71"/>
</radialGradient>
<clipPath id="clip0_1572_5210">
<rect width="208" height="491.552" fill="white"/>
</clipPath>
</defs>
</svg>
