<svg width="10" height="11" viewBox="0 0 10 11" fill="none" xmlns="http://www.w3.org/2000/svg">
<path fill-rule="evenodd" clip-rule="evenodd" d="M0 5.057C0 4.33031 0.589099 3.74121 1.31579 3.74121H8.68421C9.4109 3.74121 10 4.33031 10 5.057C10 5.78369 9.4109 6.37279 8.68421 6.37279H1.31579C0.589099 6.37279 0 5.78369 0 5.057Z" fill="#5566B7"/>
<path fill-rule="evenodd" clip-rule="evenodd" d="M4.99866 0.0566406C5.72535 0.0566406 6.31445 0.64574 6.31445 1.37243L6.31445 8.74085C6.31445 9.46754 5.72535 10.0566 4.99866 10.0566C4.27197 10.0566 3.68287 9.46754 3.68287 8.74085L3.68287 1.37243C3.68287 0.645739 4.27197 0.0566405 4.99866 0.0566406Z" fill="#5566B7"/>
</svg>
