<svg width="106" height="31" viewBox="0 0 106 31" fill="none" xmlns="http://www.w3.org/2000/svg">
<path d="M44.6021 15.1228C45.4839 14.8036 46.2499 14.371 46.897 13.825C47.544 13.279 48.0473 12.6353 48.4068 11.8912C48.7663 11.1485 48.9468 10.3523 48.9468 9.50528C48.9468 8.65829 48.7663 7.86211 48.4068 7.11936C48.0473 6.3766 47.544 5.73158 46.897 5.1856C46.2499 4.63961 45.4839 4.20699 44.6021 3.88773C43.7188 3.56848 42.7489 3.4082 41.6895 3.4082H36.6875V15.6011H41.6895C42.7489 15.6011 43.7188 15.4421 44.6021 15.1228ZM39.7277 5.84625H41.6895C42.3043 5.84625 42.8692 5.93877 43.3857 6.12511C43.9022 6.31145 44.3468 6.56685 44.7195 6.89132C45.0922 7.21709 45.3827 7.6028 45.5925 8.04975C45.8009 8.49671 45.9065 8.98145 45.9065 9.50398C45.9065 10.0265 45.8024 10.5113 45.5925 10.9582C45.3827 11.4052 45.0922 11.7922 44.7195 12.1166C44.3468 12.4424 43.9022 12.6978 43.3857 12.8829C42.8692 13.0692 42.3028 13.1617 41.6895 13.1617H39.7277V5.84625Z" fill="white"/>
<path d="M52.053 14.6954C52.5754 15.1489 53.2063 15.4994 53.9458 15.7496C54.6839 15.9998 55.5056 16.1236 56.4079 16.1236C57.3103 16.1236 58.1306 15.9985 58.8701 15.7496C59.6081 15.4994 60.2391 15.1489 60.7629 14.6954C61.2852 14.242 61.6873 13.7025 61.969 13.0757C62.2507 12.4489 62.3901 11.7518 62.3901 10.9856V3.4082H59.3499V10.9856C59.3499 11.8221 59.0814 12.4815 58.5458 12.9623C58.0102 13.4445 57.2971 13.6855 56.4079 13.6855C55.5188 13.6855 54.8057 13.4445 54.2701 12.9623C53.7345 12.4802 53.466 11.8208 53.466 10.9856V3.4082H50.4258V10.9856C50.4258 11.7518 50.5666 12.4489 50.8469 13.0757C51.1286 13.7025 51.5307 14.2433 52.053 14.6954Z" fill="white"/>
<path d="M74.5066 12.2832C74.2718 12.5555 73.9931 12.7966 73.6732 13.0064C73.3533 13.2149 72.9865 13.3804 72.5742 13.5029C72.1619 13.6253 71.7011 13.6853 71.192 13.6853C70.63 13.6853 70.0871 13.5784 69.5648 13.3634C69.0409 13.1484 68.5802 12.8526 68.1826 12.4747C67.7835 12.0981 67.4665 11.6564 67.2318 11.1508C66.997 10.6452 66.8781 10.0966 66.8781 9.50503C66.8781 8.91213 66.9955 8.36354 67.2318 7.85925C67.468 7.35496 67.7835 6.91322 68.1826 6.53532C68.5817 6.15743 69.0424 5.86163 69.5648 5.64663C70.0871 5.43162 70.63 5.32477 71.192 5.32477C71.663 5.32477 72.0812 5.3795 72.448 5.49026C72.8133 5.60102 73.1406 5.74827 73.4281 5.93461C73.7157 6.12095 73.9681 6.33465 74.1838 6.57963C74.3995 6.8233 74.5785 7.07349 74.7238 7.3289L77.764 6.98098C77.5938 6.45844 77.3253 5.95024 76.9599 5.45638C76.5931 4.96251 76.1397 4.52729 75.5968 4.1494C75.0539 3.77281 74.42 3.46789 73.6937 3.23464C72.9674 3.00269 72.1663 2.88672 71.2903 2.88672C70.2837 2.88672 69.3285 3.06394 68.4261 3.41837C67.5237 3.77281 66.7329 4.25234 66.052 4.85566C65.3727 5.46029 64.8327 6.16264 64.4336 6.96404C64.0345 7.76543 63.835 8.61373 63.835 9.50763C63.835 10.4015 64.0345 11.2498 64.4336 12.0512C64.8327 12.8526 65.3712 13.555 66.052 14.1596C66.7314 14.7629 67.5237 15.2425 68.4261 15.5969C69.3285 15.9513 70.2823 16.1286 71.2903 16.1286C72.2191 16.1286 73.0687 16.0035 73.8405 15.7546C74.6123 15.5044 75.2887 15.1773 75.8712 14.7707C76.4522 14.3642 76.9365 13.9003 77.3224 13.3778C77.7083 12.8552 77.9856 12.321 78.1558 11.775L75.1155 11.4271C74.9453 11.7229 74.7428 12.0095 74.5066 12.2832Z" fill="white"/>
<path d="M91.5413 3.4082H87.8144L82.4191 8.54622V3.4082H79.3789V15.6011H82.4191V12.1179L84.4792 10.1138L88.3045 15.6011H91.8348L86.6376 8.111L91.5413 3.4082Z" fill="white"/>
<path d="M103.097 3.60937C102.494 3.74489 101.976 3.92471 101.546 4.15405C101.115 4.38339 100.732 4.66486 100.387 5.00496C100.042 5.34506 99.7648 5.7021 99.5432 6.07609C99.3231 6.45007 99.1221 6.86705 98.9489 7.32704L97.6563 10.8649C97.398 11.5881 97.0341 12.1328 96.5646 12.4976C96.0951 12.8638 95.3864 13.0501 94.4487 13.0501L94.4385 15.6016C95.1765 15.6016 95.8471 15.5338 96.4501 15.397C97.0532 15.2614 97.5712 15.0816 98.0011 14.8523C98.4325 14.6229 98.8154 14.3415 99.1602 14.0014C99.5051 13.6613 99.7824 13.3121 100.002 12.9472C100.223 12.581 100.415 12.1732 100.578 11.7223L101.87 8.17534C101.985 7.85999 102.12 7.57983 102.272 7.34137C102.425 7.10291 102.627 6.87357 102.875 6.65204C103.125 6.43052 103.432 6.26112 103.804 6.14124C104.178 6.02266 104.608 5.96272 105.097 5.96272V3.40479C104.371 3.40479 103.7 3.47385 103.097 3.60937Z" fill="white"/>
<path d="M39.7277 18.7104H36.6875V30.9033H48.2278V28.4653H39.7277V18.7104Z" fill="white"/>
<path d="M53.1311 18.7104L49.7959 30.9033H52.9344L53.6211 28.3779H59.6033L60.29 30.9033H63.4286L60.0934 18.7104H53.1311ZM54.1024 25.9386L55.3775 21.1485H57.4376L58.7127 25.9386H54.1024Z" fill="white"/>
<path d="M77.1287 18.7104H73.4018L68.008 23.8485V18.7104H64.9678V30.9033H68.008V27.4202L70.0681 25.4161L73.8919 30.9033H77.4237L72.225 23.4132L77.1287 18.7104Z" fill="white"/>
<path d="M79.4443 30.9033H91.7696V28.4653H82.4846V26.0259H90.1013V23.5879H82.4846V21.1485H91.7696V18.7104H79.4443V30.9033Z" fill="white"/>
<path d="M95.332 4.7387L96.9856 3.2128V0.765625H93.916V3.42911H95.332V4.7387Z" fill="white"/>
<path d="M31.4614 26.5343V3.40479H28.1791V25.5127L9.14825 8.61187L6.82845 10.6733L26.323 27.986H0.5V30.9009H26.5431L31.4614 26.5343Z" fill="white"/>
</svg>
