<svg width="460" height="42" viewBox="0 0 460 42" fill="none" xmlns="http://www.w3.org/2000/svg">
<path d="M33.2796 41.092H22.1185C21.2778 40.8525 20.6123 38.9673 20.6047 38.9127C20.4155 37.7679 20.263 36.1862 20.2491 34.9931L20.1942 32.1598C20.158 29.5679 19.7155 27.0861 18.8563 26.2215C18.0054 25.3595 16.3996 24.9224 14.0517 24.9224H10.8537V41.092H0.378906V0.503906H16.3428C17.5736 0.503906 18.9514 0.586848 20.34 0.894616C22.3697 1.33518 24.4514 2.25196 26.2085 4.09671C28.0417 5.9757 29.1346 8.58742 29.5152 11.2022C29.6128 11.8736 29.6593 11.7863 29.6593 12.4535C29.6593 15.921 29.0736 18.8169 26.6811 20.3763C26.6155 20.4184 28.3762 21.0794 29.4447 23.0458C30.1841 24.4073 30.3918 26.9077 30.3918 28.9078C30.3918 30.0287 30.4692 31.044 30.6328 32.1539C31.0526 35.0112 31.674 39.9031 33.2796 41.092ZM19.8852 13.1424C19.8852 11.8804 19.4056 10.6244 18.4324 9.74511C17.3891 8.74515 15.4681 8.35048 12.9949 8.35048H10.8537V17.7538H12.9949C13.7953 17.7538 15.714 17.5008 15.714 17.5008C16.7605 17.3242 17.7159 17.2301 18.4303 16.5733C19.2742 15.7639 19.8829 14.8166 19.8852 13.1424Z" fill="white"/>
<path d="M66.1747 28.6244H45.9179C45.9179 30.0924 46.4635 32.0503 47.6219 33.2101C48.2304 33.8212 49.4456 34.557 51.6376 34.557C51.8787 34.557 53.5825 34.4945 54.8005 33.8212C55.4097 33.4555 56.0774 32.8427 56.5014 31.9858H65.811C65.385 33.5163 64.5329 35.6546 62.5245 37.6125C60.5191 39.5705 57.3532 41.4038 51.4526 41.4038C47.8639 41.4038 43.5439 40.6098 40.1983 37.2477C38.4349 35.4738 36.1836 32.1107 36.1836 26.9122C36.1836 22.3252 37.8856 18.6581 40.2572 16.3323C42.5083 14.1315 46.0391 12.3613 51.3917 12.3613C54.5546 12.3613 58.6324 13.0302 61.8572 16.0872C65.6889 19.7573 66.1747 24.5262 66.1747 27.5857V28.6244ZM57.2334 23.0009C56.9893 21.959 56.3804 20.7992 55.6503 20.0649C54.3734 18.7804 52.6062 18.5957 51.6355 18.5957C49.9915 18.5957 48.7141 19.026 47.6817 20.0649C47.0116 20.799 46.4039 21.7759 46.2217 23.0009H57.2334Z" fill="white"/>
<path d="M93.1764 39.521C90.315 41.4936 87.1113 41.4936 84.5512 41.4936C79.2848 41.4936 75.8333 39.2426 73.8965 37.3573C71.3543 34.8609 69.7207 31.2115 69.7207 27.1953C69.7207 23.178 71.3543 19.3471 74.0776 16.6699C76.6221 14.2334 80.3742 12.5312 84.9747 12.5312C86.6688 12.5312 89.829 13.0881 91.8184 14.5018L89.6164 21.2077C88.6974 20.7464 88.3033 20.4403 86.2449 20.4403C83.9444 20.4403 82.0968 21.3543 81.128 22.3276C79.7962 23.6664 79.2503 25.4326 79.2503 27.0148C79.2503 28.5357 79.7952 30.2989 80.9458 31.5772C81.8525 32.552 83.8232 33.6463 86.3058 33.6463C87.6965 33.6463 88.6802 33.5124 90.43 32.4549L93.1764 39.521Z" fill="white"/>
<path d="M128.556 26.9509C128.556 30.6028 127.348 34.0724 124.38 36.9928C120.807 40.5197 116.63 41.4945 112.273 41.4945C108.338 41.4945 103.98 40.7035 100.225 36.9928C97.2589 34.0724 96.0479 30.6028 96.0479 26.9509C96.0479 22.0851 98.2278 18.9198 100.225 16.9739C102.465 14.7832 106.398 12.4688 112.273 12.4688C118.264 12.4688 122.141 14.8433 124.38 16.9739C126.378 18.9198 128.556 22.0848 128.556 26.9509ZM119.293 26.9555C119.293 25.31 118.545 23.3226 117.179 21.9499C115.952 20.785 114.041 19.9589 112.337 19.9589C110.562 19.9589 108.653 20.7859 107.425 21.9499C106.06 23.2523 105.31 25.1737 105.31 26.9555C105.31 28.807 106.196 30.591 107.425 31.8251C108.721 33.1263 110.496 33.8807 112.337 33.8807C114.111 33.8807 115.884 33.1263 117.179 31.8251C118.545 30.5229 119.293 28.7404 119.293 26.9555Z" fill="white"/>
<path d="M164.624 13.3828L150.517 40.5817H143.922L129.938 13.3828H140.773L147.25 28.0823L153.848 13.3828H164.624Z" fill="white"/>
<path d="M196.024 28.6244H175.767C175.767 30.0924 176.313 32.0503 177.469 33.2101C178.077 33.8212 179.292 34.557 181.486 34.557C181.729 34.557 183.433 34.4945 184.649 33.8212C185.258 33.4555 185.926 32.8427 186.35 31.9858H195.658C195.233 33.5163 194.381 35.6546 192.372 37.6125C190.366 39.5705 187.202 41.4038 181.3 41.4038C177.711 41.4038 173.393 40.6098 170.045 37.2477C168.281 35.4738 166.03 32.1107 166.03 26.9122C166.03 22.3252 167.734 18.6581 170.107 16.3323C172.357 14.1315 175.886 12.3613 181.24 12.3613C184.402 12.3613 188.48 13.0302 191.703 16.0872C195.536 19.7573 196.024 24.5262 196.024 27.5857V28.6244ZM187.08 23.0009C186.835 21.959 186.228 20.7992 185.497 20.0649C184.222 18.7804 182.457 18.5957 181.482 18.5957C179.841 18.5957 178.563 19.026 177.528 20.0649C176.861 20.799 176.251 21.7759 176.068 23.0009H187.08Z" fill="white"/>
<path d="M221.862 13.3857L220.636 21.9508C219.86 21.61 218.432 21.1985 216.625 21.3045C215.358 21.3814 214.105 21.4781 212.712 22.7553C210.655 24.6406 210.533 27.5007 210.533 28.9598V40.583H200.848V13.3857H210.533L210.702 17.5225C211.575 15.7381 212.894 14.7841 214.348 14.0525C215.8 13.2627 217.264 12.957 219.081 12.957C219.323 12.957 220.568 12.957 221.862 13.3857Z" fill="white"/>
<path d="M279.204 0.501953V23.8066C279.204 28.0655 279.022 32.5105 274.662 36.9512C271.272 40.4182 267.034 41.9999 261.345 41.9999C254.989 41.9999 250.448 39.811 247.966 37.132C244.457 33.2971 244.033 28.1277 244.033 23.8064V0.501953H254.505V24.5382C254.505 26.2406 254.565 28.8574 256.563 30.8054C257.771 31.9605 259.71 32.7524 261.525 32.7524C263.343 32.7524 265.219 32.0208 266.368 30.9899C268.79 28.8574 268.728 25.8741 268.728 23.6246V0.501953H279.204Z" fill="white"/>
<path d="M302.709 25.9206L315.2 40.5825H303.303L296.628 31.8891L294.75 33.738V40.5825H285.066V0H294.75V23.1772L303.888 13.3806H315.489L302.709 25.9206Z" fill="white"/>
<path d="M340.025 13.3857L338.799 21.9508C338.024 21.61 336.597 21.1985 334.789 21.3045C333.52 21.3814 332.269 21.4781 330.874 22.7553C328.815 24.6406 328.695 27.5007 328.695 28.9598V40.583H319.012V13.3857H328.695L328.865 17.5225C329.739 15.7381 331.059 14.7841 332.508 14.0525C333.964 13.2627 335.428 12.957 337.242 12.957C337.484 12.957 338.731 12.957 340.025 13.3857Z" fill="white"/>
<path d="M374.443 13.3823V40.5821H364.759L364.286 38.2006C362.147 40.6425 359.008 41.4947 356.347 41.4947C353.442 41.4947 349.869 40.6399 346.599 37.1766C343.996 34.3741 342.724 31.2703 342.724 27.1943C342.724 22.0853 344.723 18.4934 346.901 16.3027C349.2 13.9908 352.774 12.4688 356.647 12.4688C361.006 12.4688 363.34 14.6024 364.368 15.5858L364.759 13.382H374.443V13.3823ZM365.254 26.949C365.254 25.5688 364.86 23.7318 363.227 22.158C362.249 21.2372 360.746 20.2531 358.524 20.2531C357.22 20.2531 355.456 20.7114 353.955 22.158C352.517 23.5351 351.864 25.44 351.864 26.949C351.864 28.6533 352.581 30.4929 353.89 31.7426C354.999 32.791 356.827 33.7131 358.593 33.7131C360.29 33.7131 361.986 32.9872 363.293 31.6767C364.209 30.7568 365.254 29.3124 365.254 26.949Z" fill="white"/>
<path d="M380.448 10.9491V5.39062H390.132V10.9491H380.448ZM380.448 40.582V13.383H390.132V40.582H380.448Z" fill="white"/>
<path d="M424.897 23.2995V40.5821H415.211V26.8325C415.211 25.2484 415.271 22.8753 413.999 21.5363C413.092 20.5636 411.879 20.3805 410.912 20.3805C409.398 20.3805 408.129 20.9273 407.341 21.6568C406.373 22.5719 405.769 24.3347 405.769 25.9786V40.5809H396.081V13.3822H405.769L406.057 16.4243C408.379 13.3822 412.002 12.7734 414.363 12.7734C417.147 12.7734 420.114 13.4447 422.354 15.6957C424.655 18.0048 424.897 20.3209 424.897 23.2995Z" fill="white"/>
<path d="M459.379 28.6244H439.12C439.12 30.0924 439.67 32.0503 440.826 33.2101C441.436 33.8212 442.65 34.557 444.84 34.557C445.082 34.557 446.788 34.4945 448.003 33.8212C448.613 33.4555 449.281 32.8427 449.708 31.9858H459.015C458.589 33.5163 457.737 35.6546 455.731 37.6125C453.723 39.5705 450.557 41.4038 444.658 41.4038C441.07 41.4038 436.748 40.6098 433.402 37.2477C431.639 35.4738 429.387 32.1107 429.387 26.9122C429.387 22.3252 431.091 18.6581 433.465 16.3323C435.714 14.1315 439.244 12.3613 444.598 12.3613C447.76 12.3613 451.836 13.0302 455.059 16.0872C458.893 19.7573 459.379 24.5262 459.379 27.5857V28.6244ZM450.437 23.0009C450.191 21.959 449.585 20.7992 448.853 20.0649C447.577 18.7804 445.812 18.5957 444.84 18.5957C443.198 18.5957 441.918 19.026 440.884 20.0649C440.216 20.799 439.606 21.7759 439.424 23.0009H450.437Z" fill="white"/>
<path d="M279.204 0.494141H268.728V6.05261H279.204V0.494141Z" fill="#FFC400"/>
<path d="M10.8537 35.5273H0.378906V41.0853H10.8537V35.5273Z" fill="#005BAA"/>
</svg>
