<svg width="159" height="55" viewBox="0 0 159 55" fill="none" xmlns="http://www.w3.org/2000/svg">
<path d="M149.481 54.7041L152.225 51.2781C151.625 51.1935 151.125 50.9538 150.725 50.5591C150.239 50.0797 149.996 49.4311 149.996 48.6134C149.996 47.6688 150.367 46.9004 151.111 46.3082C151.768 45.8007 152.725 45.5469 153.983 45.5469H157.67V54.7041H155.055V51.4896H154.755L152.483 54.7041H149.481ZM155.055 49.6285V47.5771H153.919C153.519 47.5771 153.226 47.6617 153.04 47.8309C152.811 48.0424 152.697 48.3103 152.697 48.6345C152.697 48.9729 152.811 49.2267 153.04 49.3959C153.24 49.551 153.533 49.6285 153.919 49.6285H155.055Z" fill="white"/>
<path d="M141.544 45.5468H144.159V54.7041H141.544V45.5468ZM141.737 42.7764C141.437 42.4662 141.287 42.0996 141.287 41.6766C141.287 41.2537 141.437 40.8942 141.737 40.5981C142.051 40.2879 142.423 40.1328 142.851 40.1328C143.28 40.1328 143.645 40.2879 143.945 40.5981C144.259 40.8942 144.416 41.2537 144.416 41.6766C144.416 42.0996 144.259 42.4662 143.945 42.7764C143.645 43.0724 143.28 43.2205 142.851 43.2205C142.423 43.2205 142.051 43.0724 141.737 42.7764Z" fill="white"/>
<path d="M130.614 54.7041V45.5469H136.531V47.7463H133.23V54.7041H130.614Z" fill="white"/>
<path d="M115.88 46.5401C116.823 45.68 118.073 45.25 119.631 45.25C121.189 45.25 122.439 45.68 123.382 46.5401C124.426 47.4706 124.947 48.669 124.947 50.1353C124.947 51.5875 124.426 52.7788 123.382 53.7094C122.439 54.5694 121.189 54.9994 119.631 54.9994C118.073 54.9994 116.823 54.5694 115.88 53.7094C114.836 52.7788 114.315 51.5875 114.315 50.1353C114.315 48.669 114.836 47.4706 115.88 46.5401ZM117.766 51.9541C118.266 52.4616 118.888 52.7154 119.631 52.7154C120.374 52.7154 120.996 52.4616 121.496 51.9541C121.996 51.4465 122.246 50.8402 122.246 50.1353C122.246 49.4162 121.996 48.8029 121.496 48.2954C120.996 47.7878 120.374 47.534 119.631 47.534C118.888 47.534 118.266 47.7878 117.766 48.2954C117.266 48.8029 117.016 49.4162 117.016 50.1353C117.016 50.8402 117.266 51.4465 117.766 51.9541Z" fill="white"/>
<path d="M108.655 45.5469V54.7041H106.04V47.7463H103.511V51.1089C103.511 52.2932 103.218 53.1956 102.632 53.8159C102.046 54.4645 101.21 54.7887 100.124 54.7887C99.8378 54.7887 99.5806 54.7605 99.3519 54.7041V52.5047C99.5234 52.5329 99.6592 52.547 99.7592 52.547C100.231 52.547 100.588 52.399 100.831 52.1029C101.045 51.8491 101.153 51.4614 101.153 50.9397V45.5469H108.655Z" fill="white"/>
<path d="M85.6888 46.5401C86.6321 45.68 87.8825 45.25 89.4403 45.25C90.998 45.25 92.2485 45.68 93.1917 46.5401C94.2349 47.4706 94.7566 48.669 94.7566 50.1353C94.7566 51.5875 94.2349 52.7788 93.1917 53.7094C92.2485 54.5694 90.998 54.9994 89.4403 54.9994C87.8825 54.9994 86.6321 54.5694 85.6888 53.7094C84.6456 52.7788 84.124 51.5875 84.124 50.1353C84.124 48.669 84.6456 47.4706 85.6888 46.5401ZM87.5753 51.9541C88.0755 52.4616 88.6971 52.7154 89.4403 52.7154C90.1834 52.7154 90.8051 52.4616 91.3053 51.9541C91.8055 51.4465 92.0556 50.8402 92.0556 50.1353C92.0556 49.4162 91.8055 48.8029 91.3053 48.2954C90.8051 47.7878 90.1834 47.534 89.4403 47.534C88.6971 47.534 88.0755 47.7878 87.5753 48.2954C87.0751 48.8029 86.825 49.4162 86.825 50.1353C86.825 50.8402 87.0751 51.4465 87.5753 51.9541Z" fill="white"/>
<path d="M79.5789 47.7463H77.0065V54.7041H74.3913V47.7463H71.8188V45.5469H79.5789V47.7463Z" fill="white"/>
<path d="M64.1807 46.7304V45.5461H66.796V54.7033H64.1807V53.519C63.4804 54.506 62.5301 54.9994 61.3296 54.9994C59.9291 54.9994 58.7858 54.5271 57.8997 53.5825C57.028 52.6379 56.5921 51.4817 56.5921 50.1141C56.5921 48.7324 57.0208 47.5763 57.8783 46.6458C58.7358 45.7153 59.8433 45.25 61.201 45.25C62.5444 45.25 63.5376 45.7435 64.1807 46.7304ZM63.7091 48.2742C63.2232 47.7808 62.6087 47.534 61.8655 47.534C61.1224 47.534 60.5079 47.7808 60.022 48.2742C59.5361 48.7677 59.2931 49.381 59.2931 50.1141C59.2931 50.8473 59.5361 51.4676 60.022 51.9752C60.5079 52.4687 61.1224 52.7154 61.8655 52.7154C62.6087 52.7154 63.2232 52.4687 63.7091 51.9752C64.195 51.4676 64.4379 50.8473 64.4379 50.1141C64.4379 49.381 64.195 48.7677 63.7091 48.2742Z" fill="white"/>
<path d="M39.5797 54.704L41.2732 45.293H43.2025L45.7535 50.8127L48.3045 45.293H50.2338L51.9273 54.704H49.312L48.5403 49.7341L46.1394 54.8944H45.3676L42.9667 49.7341L42.195 54.704H39.5797Z" fill="white"/>
<path d="M25.831 46.5401C26.7742 45.68 28.0247 45.25 29.5824 45.25C31.1402 45.25 32.3906 45.68 33.3338 46.5401C34.3771 47.4706 34.8987 48.669 34.8987 50.1353C34.8987 51.5875 34.3771 52.7788 33.3338 53.7094C32.3906 54.5694 31.1402 54.9994 29.5824 54.9994C28.0247 54.9994 26.7742 54.5694 25.831 53.7094C24.7877 52.7788 24.2661 51.5875 24.2661 50.1353C24.2661 48.669 24.7877 47.4706 25.831 46.5401ZM27.7174 51.9541C28.2176 52.4616 28.8393 52.7154 29.5824 52.7154C30.3256 52.7154 30.9472 52.4616 31.4474 51.9541C31.9476 51.4465 32.1977 50.8402 32.1977 50.1353C32.1977 49.4162 31.9476 48.8029 31.4474 48.2954C30.9472 47.7878 30.3256 47.534 29.5824 47.534C28.8393 47.534 28.2176 47.7878 27.7174 48.2954C27.2172 48.8029 26.9671 49.4162 26.9671 50.1353C26.9671 50.8402 27.2172 51.4465 27.7174 51.9541Z" fill="white"/>
<path d="M19.721 47.7463H17.1486V54.7041H14.5333V47.7463H11.9609V45.5469H19.721V47.7463Z" fill="white"/>
<path d="M7.45998 45.7999V48.3377C6.87404 47.8019 6.15949 47.534 5.31631 47.534C4.48742 47.534 3.84432 47.7878 3.387 48.2954C2.92969 48.7888 2.70103 49.3951 2.70103 50.1141C2.70103 50.8614 2.95112 51.4817 3.45131 51.9752C3.96579 52.4687 4.61604 52.7154 5.40205 52.7154C6.17378 52.7154 6.85975 52.4475 7.45998 51.9118V54.4284C6.68826 54.8091 5.88795 54.9994 5.05907 54.9994C3.61566 54.9994 2.42235 54.5553 1.47913 53.6671C0.493045 52.7506 0 51.5804 0 50.1564C0 48.6056 0.535918 47.3648 1.60775 46.4343C2.5081 45.6448 3.62281 45.25 4.95188 45.25C5.85223 45.25 6.68826 45.4333 7.45998 45.7999Z" fill="white"/>
<path d="M25.8231 38.8187C25.6799 38.546 25.5267 38.2832 25.3735 38.027C25.2303 37.7741 25.1071 37.5573 25.0105 37.3963C24.754 36.9726 24.4942 36.5324 24.2478 36.0791C23.9913 35.629 23.7515 35.1954 23.5051 34.7717C22.9122 33.7468 22.3128 32.7219 21.7233 31.7069C21.1238 30.7017 20.5509 29.7031 19.9881 28.734L20.018 28.7636C19.8848 28.5205 19.7516 28.284 19.6084 28.0573C19.4752 27.8208 19.3519 27.6073 19.2354 27.4069C18.9023 26.8321 18.5759 26.2769 18.2729 25.7218C17.9664 25.1666 17.6534 24.6213 17.337 24.0662C17.2604 23.9151 17.1838 23.7837 17.1072 23.6621C17.0306 23.5504 16.964 23.4256 16.8874 23.2942C16.8108 23.1825 16.7441 23.0676 16.6775 22.946C16.6109 22.8343 16.5443 22.7095 16.4677 22.6077C17.5635 22.2398 18.536 21.7799 19.3752 21.2444C20.2045 20.6991 20.9872 20.0323 21.7199 19.2209C22.6058 18.2059 23.2753 17.066 23.7116 15.8079C24.1512 14.5367 24.371 13.1537 24.371 11.6492C24.371 9.96407 24.1046 8.45959 23.5784 7.1522C23.0455 5.83495 22.2328 4.66881 21.1571 3.64392C18.9823 1.62042 16.0347 0.615234 12.3246 0.615234H0.514587V40.1195H6.2364V23.8658H10.7959L20.1046 40.1195H26.5791C26.4925 39.9881 26.3793 39.8107 26.2461 39.5644C26.1229 39.3278 25.9796 39.0749 25.8264 38.8121L25.8231 38.8187ZM11.0157 18.5114H6.2364V6.03861H11.5186C13.8366 6.03861 15.5918 6.55434 16.7908 7.58252C17.9931 8.60741 18.5926 10.0363 18.5926 11.8825C18.5926 12.8712 18.4127 13.7811 18.0497 14.6286C17.6867 15.4761 17.2204 16.1791 16.6675 16.754C15.9715 17.2993 15.1422 17.7329 14.1797 18.0417C13.2072 18.3504 12.158 18.5114 11.0123 18.5114H11.0157Z" fill="white"/>
<path d="M35.5414 0.621094H29.8196V40.1254H35.5414V0.621094Z" fill="white"/>
<path d="M66.2487 38.8837C65.7625 38.3647 65.2563 37.8292 64.7334 37.2576C64.2171 36.6926 63.7042 36.1473 63.218 35.6218C62.7217 35.0962 62.3221 34.6626 62.0257 34.3144C61.5394 33.7953 61.0631 33.2796 60.5769 32.7639C60.0906 32.2383 59.6044 31.7094 59.1181 31.174C58.6419 30.6484 58.1556 30.1097 57.6694 29.5742C57.1831 29.0487 56.7168 28.5198 56.2472 28.0041C54.9583 26.631 53.6927 25.248 52.4338 23.8749C51.1749 22.5018 49.9359 21.1485 48.7036 19.8214L66.2987 0.621094H58.7251C57.8392 1.59014 56.8834 2.63474 55.8842 3.73518C54.8717 4.83563 53.8526 5.95578 52.8035 7.0825C51.7644 8.21251 50.7252 9.33923 49.6961 10.4692C48.657 11.5992 47.6545 12.6898 46.692 13.7344C46.4822 13.9808 46.2624 14.214 46.0326 14.467C45.7928 14.7101 45.5829 14.9564 45.3731 15.1929V0.621094H39.6513V40.1254H45.3731V24.4728L59.5078 40.1254H67.4511C67.128 39.8166 66.725 39.4027 66.2487 38.8837Z" fill="white"/>
<path d="M98.9209 5.59748C97.2823 3.6988 95.344 2.29615 93.1325 1.37309C90.9111 0.459887 88.4398 0 85.7221 0C82.7946 0 80.1236 0.499306 77.7123 1.50449C75.301 2.5031 73.2194 3.93203 71.4642 5.78472C69.8256 7.67354 68.5567 9.88428 67.6508 12.3972C66.7449 14.9168 66.2953 17.7024 66.2953 20.7672C66.2953 23.832 66.7149 26.3647 67.5542 28.7134C68.3935 31.0752 69.6624 33.2104 71.361 35.1189C74.7648 38.8703 79.3142 40.7427 84.9994 40.7427C90.6846 40.7427 95.3273 38.8506 98.8377 35.0696C102.281 31.2789 104.007 26.1905 104.007 19.8047C104.007 13.9838 102.308 9.23387 98.9243 5.56463V5.59419L98.9209 5.59748ZM97.2424 26.6012C96.6329 28.4933 95.737 30.1094 94.5613 31.4464V31.4168C93.389 32.6684 91.9968 33.6276 90.3948 34.3141C88.7929 34.9908 86.9711 35.3292 84.9395 35.3292C83.0411 35.3292 81.3059 34.981 79.7505 34.2846C78.1952 33.5882 76.833 32.6191 75.6507 31.3873C74.4783 30.0339 73.5891 28.4341 72.9796 26.6077C72.3801 24.7813 72.0737 22.7414 72.0737 20.4847C72.0737 18.2279 72.3868 16.119 73.0262 14.2861C73.6557 12.4531 74.5916 10.8533 75.8205 9.49009C77.0495 8.22869 78.4616 7.23336 80.0436 6.5074C81.6256 5.78472 83.3641 5.41681 85.2425 5.41681C87.2742 5.41681 89.066 5.73545 90.6113 6.376C92.1667 7.02641 93.5189 7.97575 94.6945 9.24372C95.8868 10.5511 96.7628 12.1114 97.3256 13.9379C97.8885 15.7708 98.1649 17.86 98.1649 20.2022C98.1649 22.5443 97.8585 24.7091 97.239 26.5979L97.2424 26.6012Z" fill="white"/>
<path d="M144.049 0.621094H139.443L124.326 40.1254H130.504C130.801 39.2779 131.124 38.3745 131.497 37.4153C131.86 36.466 132.219 35.4871 132.592 34.4885C132.965 33.4997 133.335 32.5208 133.718 31.555C134.091 30.586 134.444 29.6629 134.777 28.7793H148.605L152.822 40.1221H159L144.049 0.621094ZM136.822 23.3658C136.899 23.149 136.945 22.9814 136.985 22.8665C137.025 22.7646 137.062 22.6595 137.092 22.584C137.112 22.4986 137.149 22.4066 137.188 22.3015C137.225 22.1996 137.285 22.0485 137.352 21.8514C137.675 21.0039 137.981 20.1597 138.294 19.3023C138.601 18.445 138.904 17.5811 139.23 16.6974C139.317 16.4806 139.41 16.2474 139.487 16.0109C139.573 15.7645 139.666 15.5411 139.753 15.3243C140.259 13.9808 140.765 12.5979 141.258 11.1853C141.315 11.0342 141.382 10.8766 141.458 10.7058C141.535 10.5284 141.601 10.3674 141.658 10.2262L146.571 23.3658H136.825H136.822Z" fill="white"/>
<path d="M129.335 0.621094H102.355V6.0379H113.026V40.1254H118.747V6.0379H129.335V0.621094Z" fill="white"/>
</svg>
