<svg width="842" height="297" viewBox="0 0 842 297" fill="none" xmlns="http://www.w3.org/2000/svg">
<path d="M792 295L806.408 276.667C803.256 276.215 800.63 274.932 798.529 272.82C795.977 270.255 794.702 266.784 794.702 262.409C794.702 257.354 796.653 253.242 800.555 250.074C804.007 247.358 809.035 246 815.639 246H835V295H821.267V277.799H819.691L807.759 295H792ZM821.267 267.841V256.864H815.301C813.2 256.864 811.661 257.316 810.686 258.222C809.485 259.353 808.885 260.787 808.885 262.522C808.885 264.333 809.485 265.691 810.686 266.596C811.736 267.426 813.275 267.841 815.301 267.841H821.267Z" fill="#393B3A"/>
<path d="M749.397 246.353H763.603V296H749.397V246.353ZM750.445 231.332C748.815 229.651 748 227.663 748 225.37C748 223.077 748.815 221.128 750.445 219.522C752.153 217.841 754.171 217 756.5 217C758.829 217 760.808 217.841 762.438 219.522C764.146 221.128 765 223.077 765 225.37C765 227.663 764.146 229.651 762.438 231.332C760.808 232.938 758.829 233.74 756.5 233.74C754.171 233.74 752.153 232.938 750.445 231.332Z" fill="#393B3A"/>
<path d="M692 295V246H723V257.769H705.703V295H692Z" fill="#393B3A"/>
<path d="M613.242 251.013C618.21 246.338 624.796 244 633 244C641.204 244 647.79 246.338 652.758 251.013C658.253 256.072 661 262.586 661 270.557C661 278.452 658.253 284.928 652.758 289.987C647.79 294.662 641.204 297 633 297C624.796 297 618.21 294.662 613.242 289.987C607.747 284.928 605 278.452 605 270.557C605 262.586 607.747 256.072 613.242 251.013ZM623.177 280.445C625.812 283.204 629.086 284.584 633 284.584C636.914 284.584 640.188 283.204 642.823 280.445C645.457 277.685 646.774 274.39 646.774 270.557C646.774 266.649 645.457 263.315 642.823 260.555C640.188 257.796 636.914 256.416 633 256.416C629.086 256.416 625.812 257.796 623.177 260.555C620.543 263.315 619.226 266.649 619.226 270.557C619.226 274.39 620.543 277.685 623.177 280.445Z" fill="#393B3A"/>
<path d="M575 246V295.542H561.226V257.899H547.903V276.092C547.903 282.499 546.36 287.381 543.274 290.737C540.188 294.246 535.785 296 530.064 296C528.559 296 527.204 295.847 526 295.542V283.643C526.903 283.796 527.618 283.872 528.145 283.872C530.629 283.872 532.511 283.071 533.79 281.469C534.919 280.096 535.484 277.998 535.484 275.176V246H575Z" fill="#393B3A"/>
<path d="M453.242 251.013C458.21 246.338 464.796 244 473 244C481.204 244 487.79 246.338 492.758 251.013C498.253 256.072 501 262.586 501 270.557C501 278.452 498.253 284.928 492.758 289.987C487.79 294.662 481.204 297 473 297C464.796 297 458.21 294.662 453.242 289.987C447.747 284.928 445 278.452 445 270.557C445 262.586 447.747 256.072 453.242 251.013ZM463.177 280.445C465.812 283.204 469.086 284.584 473 284.584C476.914 284.584 480.188 283.204 482.823 280.445C485.457 277.685 486.774 274.39 486.774 270.557C486.774 266.649 485.457 263.315 482.823 260.555C480.188 257.796 476.914 256.416 473 256.416C469.086 256.416 465.812 257.796 463.177 260.555C460.543 263.315 459.226 266.649 459.226 270.557C459.226 274.39 460.543 277.685 463.177 280.445Z" fill="#393B3A"/>
<path d="M421 257.769H407.409V295H393.591V257.769H380V246H421V257.769Z" fill="#393B3A"/>
<path d="M340.16 252.048V245.61H354V295.39H340.16V288.952C336.454 294.317 331.424 297 325.071 297C317.66 297 311.609 294.432 306.92 289.297C302.307 284.162 300 277.877 300 270.443C300 262.931 302.269 256.646 306.807 251.588C311.345 246.529 317.206 244 324.391 244C331.5 244 336.756 246.683 340.16 252.048ZM337.664 260.44C335.092 257.758 331.84 256.416 327.908 256.416C323.975 256.416 320.723 257.758 318.151 260.44C315.58 263.123 314.294 266.457 314.294 270.443C314.294 274.428 315.58 277.8 318.151 280.56C320.723 283.242 323.975 284.584 327.908 284.584C331.84 284.584 335.092 283.242 337.664 280.56C340.235 277.8 341.521 274.428 341.521 270.443C341.521 266.457 340.235 263.123 337.664 260.44Z" fill="#393B3A"/>
<path d="M210 295.969L218.915 245H229.071L242.5 274.894L255.929 245H266.085L275 295.969H261.233L257.17 269.053L244.531 297H240.469L227.83 269.053L223.767 295.969H210Z" fill="#393B3A"/>
<path d="M137.242 251.013C142.21 246.338 148.796 244 157 244C165.204 244 171.79 246.338 176.758 251.013C182.253 256.072 185 262.586 185 270.557C185 278.452 182.253 284.928 176.758 289.987C171.79 294.662 165.204 297 157 297C148.796 297 142.21 294.662 137.242 289.987C131.747 284.928 129 278.452 129 270.557C129 262.586 131.747 256.072 137.242 251.013ZM147.177 280.445C149.812 283.204 153.086 284.584 157 284.584C160.914 284.584 164.188 283.204 166.823 280.445C169.457 277.685 170.774 274.39 170.774 270.557C170.774 266.649 169.457 263.315 166.823 260.555C164.188 257.796 160.914 256.416 157 256.416C153.086 256.416 149.812 257.796 147.177 260.555C144.543 263.315 143.226 266.649 143.226 270.557C143.226 274.39 144.543 277.685 147.177 280.445Z" fill="#393B3A"/>
<path d="M104 257.769H90.4088V295H76.5912V257.769H63V246H104V257.769Z" fill="#393B3A"/>
<path d="M40 246.989V260.785C36.8582 257.873 33.0268 256.416 28.5057 256.416C24.0613 256.416 20.613 257.796 18.1609 260.555C15.7088 263.238 14.4828 266.534 14.4828 270.443C14.4828 274.505 15.8238 277.877 18.5057 280.56C21.2644 283.242 24.751 284.584 28.9655 284.584C33.1034 284.584 36.7816 283.127 40 280.215V293.896C35.8621 295.965 31.5709 297 27.1264 297C19.387 297 12.9885 294.586 7.93103 289.757C2.64368 284.775 0 278.414 0 270.672C0 262.242 2.87356 255.497 8.62069 250.438C13.4483 246.146 19.4253 244 26.5517 244C31.3793 244 35.8621 244.996 40 246.989Z" fill="#393B3A"/>
<path d="M136.997 208.986C136.239 207.516 135.428 206.099 134.617 204.718C133.858 203.354 133.206 202.185 132.695 201.317C131.337 199.032 129.961 196.659 128.657 194.215C127.299 191.788 126.029 189.45 124.724 187.165C121.585 181.639 118.411 176.113 115.29 170.641C112.116 165.221 109.083 159.836 106.103 154.612L106.262 154.771C105.557 153.46 104.851 152.185 104.093 150.963C103.388 149.688 102.735 148.536 102.118 147.456C100.355 144.356 98.6266 141.363 97.022 138.37C95.3997 135.377 93.7421 132.437 92.0669 129.443C91.6614 128.629 91.2558 127.92 90.8502 127.265C90.4447 126.663 90.092 125.99 89.6864 125.281C89.2809 124.679 88.9282 124.059 88.5755 123.404C88.2228 122.801 87.8702 122.128 87.4646 121.579C93.266 119.596 98.415 117.116 102.859 114.229C107.249 111.289 111.393 107.693 115.273 103.319C119.963 97.8457 123.508 91.6998 125.818 84.9163C128.145 78.0619 129.309 70.6053 129.309 62.4933C129.309 53.4073 127.898 45.2954 125.112 38.2461C122.291 31.1438 117.988 24.8561 112.293 19.3301C100.778 8.41976 85.1722 3 65.5285 3H3V216H33.2944V128.363H57.4347L106.72 216H141C140.542 215.292 139.942 214.335 139.237 213.007C138.584 211.732 137.826 210.368 137.015 208.951L136.997 208.986ZM58.5985 99.4929H33.2944V32.2419H61.2612C73.5341 32.2419 82.827 35.0226 89.1751 40.5664C95.5408 46.0924 98.7148 53.7969 98.7148 63.7509C98.7148 69.0821 97.7626 73.9882 95.8405 78.5578C93.9185 83.1274 91.4498 86.9177 88.5226 90.0172C84.8372 92.9573 80.4465 95.2953 75.3504 96.9602C70.2014 98.6251 64.6468 99.4929 58.5809 99.4929H58.5985Z" fill="#393B3A"/>
<path d="M188 3H158V216H188V3Z" fill="#393B3A"/>
<path d="M350.642 209.305C348.071 206.507 345.394 203.62 342.629 200.538C339.9 197.491 337.188 194.551 334.616 191.717C331.992 188.883 329.879 186.546 328.312 184.668C325.74 181.87 323.222 179.089 320.651 176.308C318.079 173.474 315.508 170.623 312.937 167.736C310.419 164.902 307.847 161.997 305.276 159.11C302.705 156.276 300.239 153.425 297.756 150.644C290.941 143.241 284.248 135.784 277.591 128.381C270.934 120.977 264.383 113.68 257.867 106.524L350.907 3H310.859C306.174 8.22493 301.12 13.8572 295.837 19.7906C290.483 25.724 285.094 31.7637 279.546 37.8388C274.052 43.9316 268.557 50.0066 263.115 56.0994C257.62 62.1922 252.32 68.0725 247.23 73.7048C246.12 75.0332 244.958 76.2907 243.743 77.6545C242.475 78.9652 241.365 80.2935 240.256 81.5688V3H210V216H240.256V131.604L314.997 216H357C355.292 214.335 353.161 212.103 350.642 209.305Z" fill="#393B3A"/>
<path d="M524.028 30.225C515.338 19.9726 505.058 12.3986 493.33 7.41434C481.548 2.48327 468.442 0 454.029 0C438.503 0 424.337 2.69612 411.549 8.12384C398.761 13.5161 387.722 21.232 378.413 31.236C369.723 41.4351 362.993 53.3726 358.189 66.9419C353.385 80.5467 351 95.5882 351 112.137C351 128.687 353.226 142.362 357.677 155.045C362.128 167.798 368.857 179.328 377.866 189.633C395.917 209.89 420.045 220 450.196 220C480.347 220 504.97 209.783 523.587 189.367C541.85 168.898 551 141.422 551 106.94C551 75.5092 541.992 49.8605 524.046 30.0476V30.2072L524.028 30.225ZM515.126 143.639C511.894 153.856 507.142 162.583 500.907 169.802V169.643C494.69 176.401 487.307 181.58 478.811 185.287C470.315 188.941 460.653 190.768 449.878 190.768C439.81 190.768 430.608 188.888 422.359 185.128C414.111 181.367 406.886 176.135 400.616 169.483C394.398 162.175 389.682 153.537 386.45 143.675C383.271 133.813 381.646 122.798 381.646 110.612C381.646 98.4262 383.306 87.0386 386.697 77.141C390.036 67.2434 394.999 58.6052 401.517 51.2441C408.034 44.4328 415.524 39.0583 423.914 35.1383C432.304 31.236 441.524 29.2494 451.486 29.2494C462.26 29.2494 471.763 30.9699 479.959 34.4288C488.207 37.9408 495.379 43.067 501.614 49.9137C507.937 56.9733 512.583 65.3987 515.568 75.2608C518.553 85.1584 520.019 96.4396 520.019 109.087C520.019 121.733 518.394 133.423 515.108 143.622L515.126 143.639Z" fill="#393B3A"/>
<path d="M762.663 3H738.221L658 216H690.785C692.357 211.43 694.072 206.56 696.051 201.388C697.978 196.269 699.886 190.991 701.866 185.607C703.845 180.276 705.807 174.998 707.84 169.79C709.819 164.565 711.692 159.588 713.46 154.824H786.841L809.215 215.982H842L762.663 3ZM724.311 125.635C724.718 124.466 724.965 123.563 725.177 122.943C725.39 122.394 725.584 121.827 725.743 121.42C725.849 120.959 726.043 120.463 726.256 119.897C726.45 119.348 726.768 118.533 727.121 117.47C728.836 112.901 730.462 108.349 732.123 103.726C733.749 99.1033 735.357 94.4451 737.089 89.6807C737.549 88.5117 738.044 87.2542 738.45 85.979C738.91 84.6506 739.405 83.4462 739.864 82.2772C742.551 75.0332 745.237 67.5766 747.853 59.9606C748.153 59.1458 748.507 58.2957 748.913 57.3747C749.32 56.4183 749.673 55.5504 749.974 54.7888L776.042 125.635H724.329H724.311Z" fill="#393B3A"/>
<path d="M685 3H542V32.2065H598.557V216H628.884V32.2065H685V3Z" fill="#393B3A"/>
</svg>
