<svg width="99" height="22" viewBox="0 0 99 22" fill="none" xmlns="http://www.w3.org/2000/svg">
<g clip-path="url(#clip0_1253_6622)">
<path d="M2.64948 13.7555C2.16197 13.6615 1.77643 13.5626 1.49537 13.4612L0.938209 9.89235H1.04019C1.34364 11.0424 1.8411 11.9327 2.53009 12.5634C3.22156 13.1941 4.07719 13.5106 5.09948 13.5106C5.85065 13.5106 6.43019 13.34 6.83562 12.9987C7.24105 12.6574 7.44252 12.1924 7.44252 11.5989C7.44252 10.9731 7.19131 10.4216 6.69384 9.93934C6.19389 9.45954 5.33826 8.97231 4.12445 8.48262C2.8211 7.9583 1.89334 7.41914 1.33618 6.86514C0.781508 6.31114 0.50293 5.68542 0.50293 4.98056C0.50293 4.34494 0.69694 3.75879 1.08496 3.22211C1.47298 2.68542 2.0177 2.26003 2.71912 1.94099C3.42054 1.62194 4.22643 1.46366 5.13679 1.46366C6.04714 1.46366 6.88288 1.59226 7.71364 1.84948L8.01461 0.748901H8.09917V4.56753H8.01461C7.83552 3.66234 7.46491 2.95748 6.90278 2.44799C6.34065 1.94099 5.61186 1.68625 4.71395 1.68625C3.88318 1.68625 3.22405 1.87916 2.73405 2.26498C2.24653 2.6508 2.00029 3.17264 2.00029 3.83052C2.00029 4.48839 2.24653 5.01271 2.74151 5.49746C3.23648 5.98221 4.04983 6.45459 5.18405 6.91213C6.37547 7.38204 7.24105 7.89152 7.78826 8.44552C8.33298 8.99952 8.60659 9.64997 8.60659 10.3969C8.60659 11.0226 8.43496 11.6013 8.09171 12.1306C7.74846 12.6623 7.24354 13.0877 6.57445 13.4117C5.90537 13.7357 5.11191 13.8965 4.19161 13.8965C3.65186 13.8965 3.13948 13.8495 2.64948 13.753V13.7555Z" fill="white"/>
<path d="M10.5416 9.76122V2.1388L9.47949 1.80491V1.72083H13.4716V1.80491L12.325 2.1388V9.52627C12.325 10.5205 12.6284 11.2674 13.2353 11.7719C13.8422 12.274 14.8023 12.5263 16.1156 12.5263C17.4289 12.5263 18.4338 12.2839 18.9959 11.7967C19.5581 11.3119 19.8391 10.5378 19.8391 9.4768V7.1322C19.8391 5.80409 19.7546 4.78018 19.5854 4.06543C19.4163 3.35067 19.1725 2.84366 18.8517 2.54193C18.5308 2.2402 18.0856 2.01761 17.5135 1.87169L17.2598 1.80491V1.72083H21.1176V1.80491L20.0406 2.1388V9.49164C20.0406 10.9657 19.6451 12.0687 18.8517 12.8008C18.0607 13.5329 16.8494 13.8989 15.2202 13.8989C12.0986 13.8989 10.5366 12.5188 10.5366 9.76122H10.5416Z" fill="white"/>
<path d="M21.7441 13.5625L22.9057 13.2287V2.1388L21.7441 1.80491V1.72083H26.9327C28.1912 1.72083 29.1339 1.94341 29.7632 2.39106C30.3925 2.83871 30.7059 3.42981 30.7059 4.16683C30.7059 4.8247 30.4845 5.36633 30.0393 5.79172C29.5966 6.21711 29.0469 6.51143 28.3977 6.6796V6.71423C29.308 6.84778 30.0741 7.20887 30.6985 7.79502C31.3228 8.38117 31.6337 9.16518 31.6337 10.1495C31.6337 10.8296 31.467 11.4331 31.1362 11.9599C30.8054 12.4842 30.3129 12.8972 29.6612 13.199C29.0096 13.5007 28.2236 13.6516 27.3033 13.6516H21.7441V13.5675V13.5625ZM26.7138 7.09758C27.4102 7.09758 27.9699 6.87252 28.3902 6.41992C28.8106 5.96732 29.022 5.30698 29.022 4.43393C29.022 3.56089 28.8106 2.93764 28.3902 2.52462C27.9699 2.11159 27.3978 1.90384 26.679 1.90384H24.6742V7.09758H26.7138ZM26.9003 13.4636C27.7983 13.4636 28.5096 13.199 29.032 12.6672C29.5543 12.138 29.8155 11.3812 29.8155 10.3968C29.8155 9.4125 29.5394 8.62107 28.9897 8.08439C28.44 7.5477 27.6988 7.28059 26.766 7.28059H24.6767V13.4611H26.9003V13.4636Z" fill="white"/>
<path d="M34.582 2.37378L34.0423 7.19901C33.8955 8.57164 33.8234 9.60049 33.8234 10.2806C33.8234 11.0844 33.8955 11.7027 34.0423 12.1306C34.189 12.5609 34.4004 12.8725 34.6815 13.0679C34.9626 13.2633 35.3555 13.4117 35.8605 13.5131L36.1465 13.5626V13.6467H32.0176V13.5626L33.0946 13.2287L34.393 2.20561L33.1294 1.80247V1.71838H36.1614L40.2555 11.3664L44.372 1.71838H47.0832V1.80247L45.8545 2.13636L47.1006 13.2262L48.1776 13.5601V13.6442H44.0512V13.5601L45.3147 13.2262L44.1532 2.72251L39.5865 14.0795H39.5516L34.582 2.37378Z" fill="white"/>
<path d="M48.1445 13.5626L48.9877 13.2288L53.8902 1.41919H53.925L59.1633 13.2288L59.9891 13.5626V13.6467H56.0144V13.5626L57.2282 13.2288L55.2906 8.78935H51.0796C50.5174 10.2312 50.2364 11.2972 50.2364 11.9897C50.2364 12.4596 50.3557 12.8034 50.5995 13.021C50.8408 13.2386 51.2263 13.4044 51.7536 13.5156L52.0397 13.5651V13.6492H48.147V13.5651L48.1445 13.5626ZM55.2035 8.58654L53.1142 3.77863L51.3631 8.06717L51.1616 8.58654H55.206H55.2035Z" fill="white"/>
<path d="M68.8071 13.5452C68.6106 13.4117 68.4166 13.1916 68.2251 12.8824C68.0335 12.5757 67.7923 12.1256 67.5013 11.5345L65.6134 7.59716H63.0017V13.2262L64.1807 13.5601V13.6442H60.0518V13.5601L61.2158 13.2262V2.1388L60.0518 1.80491V1.72083H64.8548C66.3248 1.72083 67.4142 1.95578 68.1231 2.42322C68.832 2.89065 69.1852 3.52379 69.1852 4.31522C69.1852 4.99782 68.9464 5.5543 68.4688 5.98958C67.9913 6.42486 67.3694 6.73154 66.6058 6.91209V6.9294L69.4861 11.6038C69.8344 12.1726 70.1328 12.5535 70.3791 12.7439C70.6253 12.9343 70.8964 13.0283 71.1874 13.0283C71.4014 13.0283 71.6476 12.9789 71.9287 12.8775V12.9937L71.1874 13.2781C70.7596 13.4463 70.4288 13.565 70.1925 13.6392C69.9562 13.7134 69.7199 13.748 69.4861 13.748C69.2274 13.748 69.0011 13.6813 68.8046 13.5477L68.8071 13.5452ZM64.805 7.39683C65.5686 7.39683 66.1954 7.14457 66.6829 6.64251C67.1704 6.14045 67.4167 5.47515 67.4167 4.6491C67.4167 3.82305 67.1729 3.14539 66.6829 2.64828C66.1954 2.15116 65.5636 1.90384 64.7876 1.90384H63.0017V7.39931H64.805V7.39683Z" fill="white"/>
<path d="M71.8486 13.5625L73.0102 13.2287V2.1388L71.8486 1.80491V1.72083H75.9602V1.80491L74.7986 2.1388V13.2287L75.9602 13.5625V13.6466H71.8486V13.5625Z" fill="white"/>
<path d="M77.9627 2.40597L77.9801 6.19245C77.9925 8.11413 78.1094 9.57332 78.3333 10.5725C78.5571 11.5717 78.8805 12.2741 79.3033 12.6747C79.7237 13.0779 80.3057 13.3573 81.0469 13.5131L81.2832 13.5626V13.6467H76.5996V13.5626L77.7637 13.2287V2.30457L76.5996 1.8025V1.71842H79.6988L87.3647 11.1488V7.664C87.3647 6.19987 87.2677 5.06219 87.0712 4.24603C86.8747 3.42987 86.6011 2.85362 86.2529 2.51231C85.9046 2.17101 85.4495 1.9509 84.8873 1.8495L84.6187 1.80003V1.71594H88.7302V1.80003L87.5686 2.13391V14.0152H87.5015L77.9627 2.40597Z" fill="white"/>
<path d="M89.3691 13.5626L90.5332 13.2287V2.13884L89.3691 1.80496V1.72087H96.6818L96.8684 0.748901H96.9529L97.4255 4.43398H97.341L97.2564 4.14956C97.0325 3.56836 96.7813 3.11823 96.5077 2.80166C96.2341 2.48509 95.8461 2.25508 95.3461 2.11411C94.8462 1.97561 94.1647 1.90389 93.2991 1.90389H92.3042V7.19655H93.4831C94.1572 7.18666 94.6621 7.03085 94.9979 6.73653C95.3362 6.43975 95.565 5.97479 95.6894 5.3367H95.774V9.49169H95.6894C95.565 8.76704 95.3362 8.2353 94.9979 7.90142C94.6621 7.56753 94.1572 7.39441 93.4831 7.38204H92.3042V13.4637H93.3488C94.3935 13.4538 95.2317 13.3474 95.866 13.1446C96.5003 12.9418 96.9977 12.645 97.3559 12.2493C97.7165 11.8536 98.0175 11.3144 98.2662 10.6318L98.418 10.2139H98.5025L97.8608 13.6491H89.3691V13.5651V13.5626Z" fill="white"/>
<path d="M2.62123 19.0012L2.35509 19.162C2.29788 19.0853 2.2158 19.0235 2.10636 18.9715C1.99692 18.9221 1.88001 18.8973 1.75316 18.8973C1.48702 18.8973 1.27062 18.974 1.10397 19.1249C0.937324 19.2757 0.855243 19.4687 0.855243 19.7011C0.855243 19.9336 0.937324 20.1216 1.10149 20.2724C1.26565 20.4233 1.47956 20.5 1.74819 20.5C2.01682 20.5 2.23073 20.4134 2.38245 20.2403L2.63864 20.4011C2.41727 20.6311 2.12128 20.7448 1.74819 20.7448C1.37509 20.7448 1.07164 20.6459 0.842806 20.448C0.611487 20.2502 0.49707 20.0004 0.49707 19.6987C0.49707 19.3969 0.611487 19.1447 0.842806 18.9468C1.07164 18.749 1.37509 18.65 1.74819 18.65C1.91484 18.65 2.07651 18.6797 2.2357 18.7391C2.39489 18.7984 2.52174 18.8825 2.61875 18.9938L2.62123 19.0012Z" fill="white"/>
<path d="M7.65271 19.1447C7.65271 18.974 7.64525 18.8281 7.63281 18.7069H7.95865C7.97109 18.8479 7.97855 18.9617 7.97855 19.0482H7.9885C8.05566 18.932 8.15515 18.838 8.29195 18.7663C8.42626 18.6946 8.5755 18.6575 8.73967 18.6575C8.82921 18.6575 8.90383 18.6649 8.96352 18.6797L8.91875 18.9518C8.86652 18.9345 8.78444 18.9271 8.67997 18.9271C8.48347 18.9271 8.31931 18.9914 8.18997 19.1175C8.06063 19.2436 7.99596 19.4316 7.99596 19.6814V20.7028H7.6552V19.1496L7.65271 19.1447Z" fill="white"/>
<path d="M15.978 19.6443C15.978 19.7012 15.978 19.7457 15.973 19.7803H14.0329C14.0403 19.9806 14.1249 20.1513 14.2891 20.2923C14.4532 20.4332 14.6522 20.5025 14.8885 20.5025C15.0527 20.5025 15.1994 20.4703 15.3337 20.4036C15.4681 20.3368 15.57 20.2552 15.6397 20.1587L15.8959 20.3294C15.6347 20.6088 15.3014 20.7498 14.891 20.7498C14.5453 20.7498 14.2543 20.6509 14.0254 20.453C13.7941 20.2552 13.6797 20.0054 13.6797 19.7036C13.6797 19.4019 13.7941 19.1571 14.0204 18.9567C14.2468 18.7564 14.5279 18.6575 14.8612 18.6575C15.2144 18.6575 15.4904 18.7515 15.6869 18.9369C15.8834 19.1224 15.9829 19.3599 15.9829 19.6443H15.978ZM14.0379 19.5503H15.6347C15.6248 19.3574 15.5526 19.2016 15.4158 19.0804C15.2815 18.9592 15.095 18.8998 14.8587 18.8998C14.6373 18.8998 14.4508 18.9641 14.2965 19.0928C14.1423 19.2214 14.0553 19.3747 14.0379 19.5503Z" fill="white"/>
<path d="M22.6389 19.4785V19.4142C22.6389 19.0705 22.4299 18.8998 22.0146 18.8998C21.7335 18.8998 21.5022 18.979 21.3181 19.1348L21.1291 18.9443C21.3529 18.7539 21.6589 18.6599 22.0494 18.6599C22.3155 18.6599 22.5344 18.7217 22.7035 18.8479C22.8727 18.9715 22.9597 19.1521 22.9597 19.3846V20.2551C22.9597 20.4332 22.9722 20.5816 22.9995 20.7028H22.6936C22.6712 20.589 22.6588 20.4827 22.6588 20.3788H22.6488C22.4449 20.6286 22.1613 20.7522 21.7982 20.7522C21.5892 20.7522 21.4002 20.7028 21.236 20.6014C21.0719 20.5 20.9873 20.3491 20.9873 20.1488C20.9873 20.0499 21.0072 19.9633 21.047 19.8866C21.0868 19.8124 21.1465 19.7506 21.2261 19.7011C21.3057 19.6517 21.3927 19.6146 21.4873 19.5849C21.5818 19.5552 21.6962 19.533 21.833 19.5156C21.9698 19.5008 22.0966 19.4909 22.216 19.486C22.3354 19.481 22.4747 19.4785 22.6389 19.4785ZM22.6389 19.7036H22.5394C22.3802 19.7036 22.2359 19.7086 22.1116 19.7184C21.9872 19.7283 21.8603 19.7481 21.736 19.7753C21.6116 19.8025 21.5121 19.8471 21.4425 19.9064C21.3728 19.9658 21.338 20.04 21.338 20.1315C21.338 20.2625 21.3902 20.3565 21.4972 20.4184C21.6042 20.4802 21.7335 20.5099 21.8877 20.5099C22.119 20.5099 22.3006 20.4456 22.4349 20.3194C22.5692 20.1933 22.6364 20.035 22.6364 19.852V19.7036H22.6389Z" fill="white"/>
<path d="M29.3223 18.707V18.9493H28.6631V20.1093C28.6631 20.2478 28.693 20.3442 28.7527 20.3962C28.8124 20.4481 28.8994 20.4753 29.0139 20.4753C29.1109 20.4753 29.2079 20.453 29.3098 20.411L29.3248 20.6608C29.2004 20.7004 29.0686 20.7201 28.9243 20.7201C28.7651 20.7201 28.6233 20.6806 28.504 20.6014C28.3846 20.5223 28.3249 20.3838 28.3249 20.1884V18.9469H27.8398V18.7045H28.3249V18.1431H28.6656V18.7045H29.3248L29.3223 18.707Z" fill="white"/>
<path d="M34.6779 17.7968C34.7252 17.8364 34.75 17.8858 34.75 17.9402C34.75 17.9946 34.7252 18.0441 34.6779 18.0837C34.6306 18.1232 34.5734 18.143 34.5112 18.143C34.4491 18.143 34.3919 18.1232 34.3446 18.0837C34.2973 18.0441 34.2725 17.9946 34.2725 17.9402C34.2725 17.8858 34.2973 17.8364 34.3446 17.7968C34.3919 17.7572 34.4491 17.7374 34.5112 17.7374C34.5734 17.7374 34.6306 17.7572 34.6779 17.7968ZM34.6779 18.7069V20.6979H34.3371V18.7069H34.6779Z" fill="white"/>
<path d="M41.9801 18.7069L41.0299 20.6978H40.6543L39.6992 18.7069H40.0798L40.8409 20.3912H40.8508L41.6169 18.7069H41.9826H41.9801Z" fill="white"/>
<path d="M49.1244 19.6443C49.1244 19.7012 49.1244 19.7457 49.1195 19.7803H47.1794C47.1868 19.9806 47.2714 20.1513 47.4356 20.2923C47.5997 20.4332 47.7987 20.5025 48.035 20.5025C48.1992 20.5025 48.3459 20.4703 48.4802 20.4036C48.6145 20.3368 48.7165 20.2552 48.7862 20.1587L49.0424 20.3294C48.7812 20.6088 48.4479 20.7498 48.0375 20.7498C47.6918 20.7498 47.4007 20.6509 47.1719 20.453C46.9406 20.2552 46.8262 20.0054 46.8262 19.7036C46.8262 19.4019 46.9406 19.1571 47.1669 18.9567C47.3933 18.7564 47.6743 18.6575 48.0076 18.6575C48.3608 18.6575 48.6369 18.7515 48.8334 18.9369C49.0299 19.1224 49.1294 19.3599 49.1294 19.6443H49.1244ZM47.1843 19.5503H48.7812C48.7712 19.3574 48.6991 19.2016 48.5623 19.0804C48.428 18.9592 48.2415 18.8998 48.0052 18.8998C47.7838 18.8998 47.5972 18.9641 47.443 19.0928C47.2888 19.2214 47.2018 19.3747 47.1843 19.5503Z" fill="white"/>
<path d="M61.5481 19.4785V19.4142C61.5481 19.0705 61.3391 18.8998 60.9237 18.8998C60.6427 18.8998 60.4114 18.979 60.2273 19.1348L60.0383 18.9443C60.2621 18.7539 60.5681 18.6599 60.9586 18.6599C61.2247 18.6599 61.4436 18.7217 61.6152 18.8479C61.7844 18.9715 61.8689 19.1521 61.8689 19.3846V20.2551C61.8689 20.4332 61.8814 20.5816 61.9087 20.7028H61.6028C61.5804 20.589 61.568 20.4827 61.568 20.3788H61.558C61.354 20.6286 61.0705 20.7522 60.7073 20.7522C60.4959 20.7522 60.3094 20.7028 60.1452 20.6014C59.9811 20.5 59.8965 20.3491 59.8965 20.1488C59.8965 20.0499 59.9164 19.9633 59.9562 19.8866C59.996 19.8124 60.0557 19.7506 60.1353 19.7011C60.2149 19.6517 60.3019 19.6146 60.3964 19.5849C60.4885 19.5552 60.6054 19.533 60.7422 19.5156C60.879 19.5008 61.0058 19.4909 61.1252 19.486C61.2421 19.481 61.3839 19.4785 61.5481 19.4785ZM61.5481 19.7036H61.4486C61.2894 19.7036 61.1451 19.7086 61.0208 19.7184C60.8964 19.7283 60.772 19.7481 60.6452 19.7753C60.5183 19.8025 60.4238 19.8471 60.3517 19.9064C60.2795 19.9658 60.2472 20.04 60.2472 20.1315C60.2472 20.2625 60.3019 20.3565 60.4064 20.4184C60.5133 20.4802 60.6427 20.5099 60.7969 20.5099C61.0257 20.5099 61.2098 20.4456 61.3441 20.3194C61.4784 20.1933 61.5456 20.035 61.5456 19.852V19.7036H61.5481Z" fill="white"/>
<path d="M67.1049 21.3186L67.3511 21.0985C67.4481 21.2024 67.5775 21.2914 67.7416 21.3607C67.9058 21.4299 68.0749 21.4646 68.2465 21.4646C68.5624 21.4646 68.7962 21.3928 68.943 21.2469C69.0898 21.1035 69.1644 20.913 69.1644 20.6806V20.3071H69.1544C69.0674 20.4258 68.943 20.5223 68.7763 20.5915C68.6122 20.6632 68.443 20.6979 68.2689 20.6979C67.9083 20.6979 67.6173 20.6039 67.3934 20.4134C67.1695 20.223 67.0576 19.9806 67.0576 19.6863C67.0576 19.392 67.1695 19.1521 67.3959 18.9543C67.6198 18.7564 67.9108 18.6575 68.2689 18.6575C68.4455 18.6575 68.6147 18.6921 68.7763 18.7613C68.938 18.8306 69.0649 18.927 69.1544 19.0532H69.1644V18.7094H69.5051V20.683C69.5051 20.8042 69.4852 20.9205 69.4479 21.0317C69.4081 21.143 69.3459 21.2519 69.2589 21.3607C69.1718 21.4695 69.04 21.5561 68.8659 21.6228C68.6918 21.6871 68.4804 21.7193 68.2341 21.7193C68.0202 21.7193 67.8138 21.6847 67.6173 21.613C67.4183 21.5412 67.2491 21.4448 67.1098 21.3186H67.1049ZM67.6521 19.1249C67.4929 19.2758 67.4133 19.4588 67.4133 19.6764C67.4133 19.8941 67.4929 20.0796 67.6521 20.228C67.8113 20.3763 68.0252 20.4505 68.2988 20.4505C68.5724 20.4505 68.7788 20.3788 68.9455 20.2354C69.1146 20.0919 69.1992 19.9064 69.1992 19.6764C69.1992 19.4637 69.1121 19.2807 68.9405 19.1274C68.7689 18.974 68.555 18.8974 68.2988 18.8974C68.0252 18.8974 67.8088 18.9716 67.6521 19.1224V19.1249Z" fill="white"/>
<path d="M77.0019 19.6443C77.0019 19.7012 77.0019 19.7457 76.997 19.7803H75.0569C75.0618 19.9806 75.1489 20.1513 75.3106 20.2923C75.4722 20.4332 75.6737 20.5025 75.91 20.5025C76.0742 20.5025 76.2209 20.4703 76.3552 20.4036C76.4895 20.3368 76.5915 20.2552 76.6612 20.1587L76.9174 20.3294C76.6562 20.6088 76.3229 20.7498 75.9125 20.7498C75.5668 20.7498 75.2757 20.6509 75.0469 20.453C74.8181 20.2552 74.7012 20.0054 74.7012 19.7036C74.7012 19.4019 74.8156 19.1571 75.0419 18.9567C75.2683 18.7564 75.5493 18.6575 75.8826 18.6575C76.2358 18.6575 76.5119 18.7515 76.7084 18.9369C76.9049 19.1224 77.0044 19.3599 77.0044 19.6443H77.0019ZM75.0618 19.5503H76.6587C76.6487 19.3574 76.5766 19.2016 76.4398 19.0804C76.3055 18.9592 76.1189 18.8998 75.8826 18.8998C75.6613 18.8998 75.4747 18.9641 75.3205 19.0928C75.1663 19.2214 75.0792 19.3747 75.0643 19.5503H75.0618Z" fill="white"/>
<path d="M82.1953 18.707H82.5211C82.5336 18.8479 82.541 18.9617 82.541 19.0483H82.551C82.6132 18.9345 82.7226 18.8405 82.8743 18.7663C83.0261 18.6921 83.1853 18.655 83.3519 18.655C83.6429 18.655 83.8618 18.7292 84.016 18.8751C84.1677 19.0235 84.2424 19.2214 84.2424 19.4737V20.6954H83.9016V19.5948C83.9016 19.3698 83.8543 19.1991 83.7598 19.0779C83.6653 18.9568 83.5011 18.8974 83.2673 18.8974C83.0708 18.8974 82.9042 18.9642 82.7649 19.1002C82.6256 19.2362 82.5585 19.4267 82.5585 19.6765V20.6979H82.2177V19.1447C82.2177 18.9741 82.2102 18.8282 82.1978 18.707H82.1953Z" fill="white"/>
<path d="M91.5548 19.0012L91.2887 19.162C91.2315 19.0853 91.1494 19.0235 91.04 18.9715C90.9305 18.9221 90.8136 18.8973 90.6868 18.8973C90.4206 18.8973 90.2042 18.974 90.0401 19.1249C89.8734 19.2757 89.7913 19.4687 89.7913 19.7011C89.7913 19.9336 89.8734 20.1216 90.0376 20.2724C90.2017 20.4233 90.4156 20.5 90.6818 20.5C90.9479 20.5 91.1643 20.4134 91.3185 20.2403L91.5722 20.4011C91.3509 20.6311 91.0549 20.7448 90.6818 20.7448C90.3087 20.7448 90.0052 20.6459 89.7764 20.448C89.5476 20.2502 89.4307 20.0004 89.4307 19.6987C89.4307 19.3969 89.5451 19.1447 89.7764 18.9468C90.0077 18.749 90.3087 18.65 90.6818 18.65C90.8484 18.65 91.0126 18.6797 91.1693 18.7391C91.3285 18.7984 91.4553 18.8825 91.5523 18.9938L91.5548 19.0012Z" fill="white"/>
<path d="M96.5988 18.7069L97.3947 20.3862H97.4047L98.131 18.7069H98.5016L97.335 21.2123C97.2579 21.3804 97.1634 21.5066 97.0515 21.5907C96.9395 21.6748 96.7878 21.7193 96.5988 21.7193C96.4943 21.7193 96.3923 21.7119 96.2928 21.6945L96.3277 21.4299C96.4072 21.4522 96.4918 21.4645 96.5789 21.4645C96.6883 21.4645 96.7779 21.4349 96.8475 21.378C96.9147 21.3186 96.9768 21.2321 97.0291 21.1133L97.2206 20.6954L96.2207 18.7094H96.6013L96.5988 18.7069Z" fill="white"/>
</g>
<defs>
<clipPath id="clip0_1253_6622">
<rect width="98" height="21" fill="white" transform="translate(0.5 0.719238)"/>
</clipPath>
</defs>
</svg>
