<svg width="669" height="173" viewBox="0 0 669 173" fill="none" xmlns="http://www.w3.org/2000/svg">
<g clip-path="url(#clip0_1358_5630)">
<path d="M61.508 97.021V139.293C61.508 147.019 61.1773 155.082 53.3172 163.136C47.2019 169.43 39.5554 172.298 29.2901 172.298C17.8237 172.298 9.63489 168.326 5.15669 163.467C-1.18034 156.513 -1.94141 147.133 -1.94141 139.292V97.0205H16.9497V140.619C16.9497 143.71 17.0566 148.455 20.6628 151.99C22.8457 154.085 26.3396 155.522 29.6177 155.522C32.8933 155.522 36.2768 154.195 38.3523 152.318C42.7207 148.455 42.6083 143.051 42.6083 138.965V97.0205L61.508 97.021Z" fill="black"/>
<path d="M103.913 143.128L126.441 169.725H104.983L92.9408 153.949L89.5548 157.308V169.725H72.083V96.1074H89.5548V138.152L106.037 120.386H126.963L103.913 143.128Z" fill="black"/>
<path d="M171.228 120.386L169.02 135.925C167.617 135.311 165.043 134.566 161.783 134.757C159.493 134.894 157.237 135.066 154.723 137.389C151.011 140.811 150.795 145.997 150.795 148.642V169.726H133.319V120.386H150.795L151.099 127.894C152.675 124.656 155.051 122.927 157.673 121.604C160.295 120.168 162.936 119.611 166.213 119.611C166.648 119.611 168.896 119.611 171.228 120.386Z" fill="black"/>
<path d="M233.32 120.386V169.726H215.846L214.992 165.403C211.138 169.837 205.472 171.38 200.67 171.38C195.427 171.38 188.984 169.83 183.086 163.544C178.393 158.463 176.1 152.837 176.1 145.442C176.1 136.171 179.701 129.662 183.634 125.686C187.784 121.491 194.224 118.732 201.214 118.732C209.079 118.732 213.287 122.6 215.137 124.387L215.845 120.387L233.32 120.386ZM216.741 144.992C216.741 142.502 216.03 139.157 213.085 136.302C211.318 134.634 208.611 132.853 204.604 132.853C202.248 132.853 199.064 133.677 196.353 136.302C193.763 138.802 192.583 142.256 192.583 144.992C192.583 148.096 193.88 151.423 196.239 153.686C198.242 155.595 201.542 157.263 204.726 157.263C207.784 157.263 210.846 155.95 213.206 153.568C214.852 151.902 216.741 149.28 216.741 144.992Z" fill="black"/>
<path d="M244.147 115.973V105.888H261.621V115.973H244.147ZM244.147 169.72V120.385H261.621V169.72H244.147Z" fill="black"/>
<path d="M324.337 138.379V169.725H306.863V144.783C306.863 141.911 306.971 137.606 304.677 135.179C303.04 133.411 300.855 133.075 299.111 133.075C296.377 133.075 294.088 134.07 292.667 135.398C290.918 137.052 289.825 140.256 289.825 143.233V169.721H272.352V120.386H289.825L290.347 125.903C294.542 120.386 301.071 119.281 305.334 119.281C310.357 119.281 315.708 120.495 319.75 124.585C323.901 128.776 324.337 132.971 324.337 138.379Z" fill="black"/>
<path d="M386.541 148.036H349.993C349.993 150.695 350.982 154.245 353.069 156.348C354.166 157.462 356.36 158.794 360.313 158.794C360.753 158.794 363.823 158.68 366.019 157.462C367.121 156.794 368.325 155.678 369.092 154.129H385.881C385.114 156.903 383.579 160.784 379.954 164.339C376.334 167.884 370.628 171.219 359.98 171.219C353.51 171.219 345.712 169.77 339.682 163.675C336.498 160.457 332.434 154.353 332.434 144.927C332.434 136.605 335.51 129.952 339.791 125.734C343.851 121.744 350.214 118.526 359.876 118.526C365.578 118.526 372.93 119.744 378.749 125.289C385.665 131.947 386.541 140.6 386.541 146.145V148.036ZM370.408 137.829C369.964 135.938 368.87 133.833 367.553 132.507C365.25 130.175 362.066 129.843 360.313 129.843C357.35 129.843 355.043 130.616 353.177 132.507C351.972 133.833 350.875 135.611 350.541 137.829H370.408Z" fill="black"/>
<path d="M61.5081 97.0029H42.6084V107.088H61.5081V97.0029Z" fill="#FFC400"/>
<path d="M57.4113 73.9193H37.2758C35.7602 73.4919 34.5596 70.065 34.546 69.9697C34.2043 67.8928 33.9291 65.0252 33.9029 62.8617L33.8041 57.7211C33.7381 53.0175 32.9407 48.5137 31.3893 46.9456C29.8561 45.3776 26.96 44.5911 22.7263 44.5911H16.9532V73.9193H-1.94141V0.296875H26.8547C29.0784 0.296875 31.5602 0.446647 34.0672 1.006C37.7299 1.8058 41.4868 3.46908 44.6571 6.8099C47.962 10.2185 49.9337 14.9592 50.6207 19.704C50.7991 20.9175 50.8828 20.7631 50.8828 21.972C50.8828 28.2619 49.8258 33.511 45.5049 36.347C45.3885 36.4199 48.5693 37.6196 50.4916 41.1876C51.8273 43.6553 52.2028 48.1958 52.2028 51.8178C52.2028 53.854 52.3434 55.6946 52.6388 57.7083C53.3928 62.8892 54.5112 71.765 57.4113 73.9193ZM33.2466 23.217C33.2466 20.9307 32.3812 18.6536 30.6252 17.0586C28.7448 15.2409 25.2791 14.5272 20.8186 14.5272H16.9537V31.5885H20.8186C22.2595 31.5885 25.7222 31.1249 25.7222 31.1249C27.6082 30.807 29.335 30.6389 30.6237 29.4412C32.1449 27.9751 33.2421 26.2568 33.2466 23.217Z" fill="black"/>
<path d="M116.754 51.308H80.21C80.21 53.9667 81.1968 57.5169 83.2835 59.6203C84.3817 60.7339 86.5752 62.0655 90.5267 62.0655C90.9637 62.0655 94.0372 61.9519 96.2317 60.7339C97.3325 60.0655 98.5386 58.9524 99.3052 57.4027H116.098C115.329 60.1751 113.791 64.0543 110.169 67.6107C106.548 71.1598 100.838 74.4869 90.1946 74.4869C83.7159 74.4869 75.9268 73.0462 69.8912 66.9469C66.7108 63.7293 62.6484 57.6249 62.6484 48.1989C62.6484 39.8774 65.7194 33.2192 69.9995 29.0057C74.0609 25.0154 80.4277 21.7979 90.0842 21.7979C95.7907 21.7979 103.145 23.0159 108.961 28.5605C115.875 35.2187 116.754 43.8724 116.754 49.4149V51.308ZM100.622 41.1006C100.181 39.2142 99.0864 37.1031 97.7664 35.7781C95.4621 33.4515 92.2762 33.1148 90.5247 33.1148C87.5616 33.1148 85.2547 33.8881 83.3883 35.7781C82.1822 37.1036 81.0839 38.8876 80.7558 41.1006H100.622Z" fill="black"/>
<path d="M165.468 71.0688C160.303 74.6506 154.523 74.6506 149.904 74.6506C140.406 74.6506 134.178 70.5644 130.684 67.1426C126.1 62.6204 123.15 55.9984 123.15 48.7085C123.15 41.4272 126.1 34.4736 131.008 29.6157C135.599 25.2025 142.369 22.1123 150.666 22.1123C153.725 22.1123 159.426 23.121 163.017 25.6844L159.042 37.8511C157.384 37.0105 156.672 36.4563 152.962 36.4563C148.812 36.4563 145.475 38.1149 143.726 39.8832C141.327 42.3106 140.342 45.5098 140.342 48.3819C140.342 51.1405 141.325 54.3402 143.4 56.6586C145.036 58.4309 148.591 60.4121 153.067 60.4121C155.579 60.4121 157.351 60.167 160.507 58.249L165.468 71.0688Z" fill="black"/>
<path d="M229.291 48.2721C229.291 54.8941 227.105 61.1845 221.754 66.479C215.31 72.8799 207.774 74.6507 199.914 74.6507C192.814 74.6507 184.951 73.2141 178.181 66.479C172.829 61.184 170.645 54.8941 170.645 48.2721C170.645 39.4416 174.577 33.7014 178.181 30.1701C182.222 26.1981 189.319 22.0029 199.914 22.0029C210.724 22.0029 217.716 26.3025 221.754 30.1701C225.361 33.7019 229.291 39.4416 229.291 48.2721ZM212.581 48.2766C212.581 45.2955 211.228 41.6867 208.769 39.1961C206.552 37.083 203.107 35.5924 200.032 35.5924C196.83 35.5924 193.381 37.083 191.169 39.1961C188.709 41.5598 187.353 45.0413 187.353 48.2766C187.353 51.6358 188.953 54.8712 191.169 57.1076C193.507 59.4713 196.709 60.8391 200.032 60.8391C203.229 60.8391 206.43 59.4708 208.769 57.1076C211.228 54.7443 212.581 51.513 212.581 48.2766Z" fill="black"/>
<path d="M294.352 23.6533L268.905 72.9975H257.002L231.776 23.6533H251.328L263.01 50.3178L274.912 23.6533H294.352Z" fill="black"/>
<path d="M351 51.308H314.456C314.456 53.9667 315.441 57.5169 317.527 59.6203C318.624 60.7339 320.818 62.0655 324.771 62.0655C325.207 62.0655 328.283 61.9519 330.477 60.7339C331.575 60.0655 332.779 58.9524 333.549 57.4027H350.339C349.575 60.1751 348.033 64.0543 344.412 67.6107C340.791 71.1598 335.082 74.4869 324.434 74.4869C317.961 74.4869 310.175 73.0462 304.132 66.9469C300.953 63.7293 296.893 57.6249 296.893 48.1989C296.893 39.8774 299.964 33.2192 304.242 29.0057C308.305 25.0154 314.668 21.7979 324.331 21.7979C330.033 21.7979 337.389 23.0159 343.203 28.5605C350.119 35.2187 351 43.8724 351 49.4149V51.308ZM334.862 41.1006C334.421 39.2142 333.329 37.1031 332.012 35.7781C329.709 33.4515 326.525 33.1148 324.767 33.1148C321.802 33.1148 319.5 33.8881 317.636 35.7781C316.428 37.1036 315.329 38.8876 314.999 41.1006H334.862Z" fill="black"/>
<path d="M397.608 23.6576L395.4 39.1961C393.997 38.5828 391.421 37.8375 388.161 38.0285C385.876 38.1605 383.614 38.3372 381.105 40.6551C377.391 44.0825 377.176 49.2675 377.176 51.913V72.9971H359.697V23.6576H377.176L377.477 31.1655C379.051 27.9291 381.43 26.1981 384.055 24.8751C386.672 23.439 389.316 22.8848 392.593 22.8848C393.031 22.8848 395.274 22.8848 397.608 23.6576Z" fill="black"/>
<path d="M16.9532 63.8301H-1.94141V73.9152H16.9532V63.8301Z" fill="#005BAA"/>
</g>
<defs>
<clipPath id="clip0_1358_5630">
<rect width="669" height="172" fill="white" transform="translate(0 0.296875)"/>
</clipPath>
</defs>
</svg>
