<svg width="151" height="158" viewBox="0 0 151 158" fill="none" xmlns="http://www.w3.org/2000/svg">
<g clip-path="url(#clip0_1358_5951)">
<path d="M151 0.263672V88.3674C151 104.478 150.23 121.272 131.515 138.063C116.952 151.177 98.7637 157.156 74.3403 157.156C47.0444 157.156 27.5487 148.878 16.8947 138.747C1.82037 124.252 0 104.714 0 88.3674V0.263672H44.9667V91.1397C44.9667 97.5783 45.2199 107.473 53.8007 114.83C58.9903 119.207 67.318 122.191 75.1095 122.191C82.912 122.191 90.9571 119.431 95.8931 115.528C106.294 107.473 106.037 96.1846 106.037 87.6842V0.263672H151Z" fill="white"/>
<path d="M151 0.263672H106V21.2493H151V0.263672Z" fill="#FFC400"/>
</g>
<defs>
<clipPath id="clip0_1358_5951">
<rect width="151" height="156.892" fill="white" transform="translate(0 0.263672)"/>
</clipPath>
</defs>
</svg>
